<svg width="2000" height="2000" viewBox="0 0 2000 2000" fill="none" xmlns="http://www.w3.org/2000/svg">
<g clip-path="url(#clip0_567_2158)">
<path d="M0 0V1999.33H2000V0H0Z" fill="#0040D3"/>
<path d="M493.835 902.366H494.502V251.916H779.74C774.328 249.646 765.611 251.249 759.747 251.249H715.095H560.48H511.163C507.765 251.249 496.767 249.482 494.52 252.318C492.65 254.68 493.835 261.033 493.835 263.912V295.901V420.526V902.366Z" fill="#8DB0FF"/>
<path d="M779.74 251.25V251.916H785.072L779.74 251.25Z" fill="#5286FF"/>
<path d="M1135.62 251.25V251.916H1559.48L1547.48 251.25H1522.83H1436.19H1135.62Z" fill="#8DB0FF"/>
<path d="M494.502 252.916V903.366H735.088C807.884 903.366 882.786 903.213 946.351 862.253C994.808 831.024 1018.99 779.954 1018.99 723.426C1018.99 699.687 1014.88 675.249 1003.46 654.116C986.478 622.7 959.194 601.06 927.691 585.307C913.456 578.191 896.281 569.622 880.373 567.478C887.977 560.096 901.919 556.222 911.03 550.356C931.556 537.142 949.417 519.889 961.946 498.834C991.11 449.809 991.036 380.776 959.627 332.89C941.72 305.582 914.415 285.579 884.372 273.312C828.984 250.697 771.063 252.916 712.429 252.916H494.502Z" fill="white"/>
<path d="M789.07 251.916V252.582H792.403L789.07 251.916Z" fill="#C6D7FF"/>
<path d="M792.402 251.916V252.582H795.068L792.402 251.916Z" fill="#8DB0FF"/>
<path d="M795.068 251.916V252.582H797.734L795.068 251.916Z" fill="#5286FF"/>
<path d="M1135.62 251.916V317.228H1310.9V836.388H1135.62V902.366H1559.48V836.388H1384.21V317.228H1559.48V251.916H1135.62Z" fill="white"/>
<path d="M1559.48 251.916V317.228H1384.21V317.894H1513.5H1546.82C1549.82 317.894 1556.62 319.157 1559.08 317.209C1561.79 315.067 1560.15 305.107 1560.15 301.899V267.244C1560.15 262.612 1561.28 256.205 1559.48 251.916ZM799.733 252.582V253.249H801.733L799.733 252.582Z" fill="#C6D7FF"/>
<path d="M801.733 252.583V253.249H803.732L801.733 252.583Z" fill="#8DB0FF"/>
<path d="M803.732 252.583V253.249H805.731L803.732 252.583Z" fill="#5286FF"/>
<path d="M807.064 253.249V253.915H809.064L807.064 253.249Z" fill="#C6D7FF"/>
<path d="M566.478 317.228V317.894H771.743L753.082 317.228H711.763H566.478ZM1135.62 317.228V317.894H1310.9L1294.9 317.228H1258.91H1135.62Z" fill="#C6D7FF"/>
<path d="M566.478 317.894V541.819H567.144V383.872V337.887L566.478 317.894Z" fill="#8DB0FF"/>
<path d="M567.145 317.894V541.153H727.091C770.177 541.153 813.956 542.149 853.049 520.954C870.41 511.544 885.465 497.829 895.129 480.507C920.867 434.369 910.27 371.548 865.045 342.116C827.478 317.666 781.48 317.894 738.421 317.894H567.145Z" fill="#0040D3"/>
<path d="M776.408 317.894V318.56H780.406L776.408 317.894Z" fill="#5286FF"/>
<path d="M780.407 317.894V318.56H783.073L780.407 317.894Z" fill="#8DB0FF"/>
<path d="M783.072 317.894V318.56H785.738L783.072 317.894Z" fill="#C6D7FF"/>
<path d="M1384.21 317.894V836.388H1384.87V468.511V362.546V331.889L1384.21 317.894Z" fill="#8DB0FF"/>
<path d="M787.737 318.561V319.227H789.737L787.737 318.561Z" fill="#5286FF"/>
<path d="M791.07 318.561V319.227H793.069L791.07 318.561Z" fill="#C6D7FF"/>
<path d="M794.402 319.227V319.893H796.401L794.402 319.227Z" fill="#5286FF"/>
<path d="M982.339 396.535V398.534H983.006L982.339 396.535Z" fill="#5286FF"/>
<path d="M982.339 398.534V400.533H983.006L982.339 398.534Z" fill="#8DB0FF"/>
<path d="M982.339 400.533V403.199H983.006L982.339 400.533Z" fill="#C6D7FF"/>
<path d="M983.006 405.865V423.192H983.672L983.006 405.865Z" fill="#5286FF"/>
<path d="M907.697 411.863V413.862H908.364L907.697 411.863Z" fill="#5286FF"/>
<path d="M908.364 415.861V418.527H909.03L908.364 415.861Z" fill="#C6D7FF"/>
<path d="M908.364 418.527V430.523H909.03L908.364 418.527Z" fill="#8DB0FF"/>
<path d="M982.339 426.524V429.19H983.006L982.339 426.524Z" fill="#C6D7FF"/>
<path d="M982.339 429.19V431.19H983.006L982.339 429.19Z" fill="#8DB0FF"/>
<path d="M908.364 430.523V433.855H909.03L908.364 430.523Z" fill="#C6D7FF"/>
<path d="M982.339 431.189V433.189H983.006L982.339 431.189Z" fill="#5286FF"/>
<path d="M907.697 436.521V438.52H908.364L907.697 436.521Z" fill="#5286FF"/>
<path d="M784.405 539.82V540.487H786.405L784.405 539.82Z" fill="#5286FF"/>
<path d="M775.741 540.487V541.153H778.407L775.741 540.487Z" fill="#5286FF"/>
<path d="M778.407 540.487V541.153H781.073L778.407 540.487Z" fill="#8DB0FF"/>
<path d="M781.073 540.487V541.153H783.073L781.073 540.487Z" fill="#C6D7FF"/>
<path d="M567.145 541.153V541.819H761.746L743.752 541.153H704.432H567.145Z" fill="#5286FF"/>
<path d="M761.746 541.153V541.819H769.077L761.746 541.153Z" fill="#8DB0FF"/>
<path d="M769.077 541.153V541.819H773.076L769.077 541.153Z" fill="#C6D7FF"/>
<path d="M566.478 836.388H567.144V607.131H780.407L765.079 606.464H731.756H616.461H579.807L567.163 607.533L566.478 623.125V667.111V836.388Z" fill="#8DB0FF"/>
<path d="M780.407 606.464V607.131H787.071L780.407 606.464Z" fill="#C6D7FF"/>
<path d="M567.145 607.131V835.722H746.418C791.696 835.722 837.494 837.568 879.707 818.187C900.34 808.717 919.007 794.102 930.723 774.409C951.536 739.42 950.517 687.311 923.492 655.781C896.215 623.955 852.429 613.02 812.396 609.018C780.393 605.819 747.931 607.131 715.762 607.131H567.145Z" fill="#0040D3"/>
<path d="M791.07 607.131V607.797H794.402L791.07 607.131Z" fill="#5286FF"/>
<path d="M794.402 607.131V607.797H797.734L794.402 607.131Z" fill="#8DB0FF"/>
<path d="M797.734 607.131V607.797H800.4L797.734 607.131Z" fill="#C6D7FF"/>
<path d="M802.399 607.797V608.464H805.065L802.399 607.797Z" fill="#5286FF"/>
<path d="M805.065 607.797V608.464H807.064L805.065 607.797Z" fill="#8DB0FF"/>
<path d="M807.064 607.797V608.464H809.064L807.064 607.797Z" fill="#C6D7FF"/>
<path d="M810.396 608.464V609.13H812.396L810.396 608.464Z" fill="#5286FF"/>
<path d="M1018.33 704.432V706.431H1018.99L1018.33 704.432Z" fill="#8DB0FF"/>
<path d="M1018.33 706.431V708.43H1018.99L1018.33 706.431ZM944.352 707.098V709.097H945.018L944.352 707.098Z" fill="#C6D7FF"/>
<path d="M944.352 709.097V711.096H945.018L944.352 709.097Z" fill="#8DB0FF"/>
<path d="M1018.99 710.43V713.095H1019.66L1018.99 710.43ZM944.352 711.096V715.761H945.018L944.352 711.096Z" fill="#5286FF"/>
<path d="M1018.99 713.096V717.094H1019.66L1018.99 713.096Z" fill="#8DB0FF"/>
<path d="M1018.99 717.094V730.423H1019.66L1018.99 717.094Z" fill="#C6D7FF"/>
<path d="M944.352 723.092V727.091H945.018L944.352 723.092Z" fill="#5286FF"/>
<path d="M944.352 727.091V729.757H945.018L944.352 727.091Z" fill="#8DB0FF"/>
<path d="M944.352 729.757V731.756H945.018L944.352 729.757Z" fill="#C6D7FF"/>
<path d="M1018.99 730.423V734.422H1019.66L1018.99 730.423Z" fill="#8DB0FF"/>
<path d="M1018.99 734.422V737.754H1019.66L1018.99 734.422Z" fill="#5286FF"/>
<path d="M1018.33 739.753V741.753H1018.99L1018.33 739.753Z" fill="#C6D7FF"/>
<path d="M1018.33 741.753V743.752H1018.99L1018.33 741.753Z" fill="#8DB0FF"/>
<path d="M813.062 834.388V835.055H815.062L813.062 834.388Z" fill="#5286FF"/>
<path d="M804.398 835.055V835.721H807.064L804.398 835.055Z" fill="#5286FF"/>
<path d="M807.064 835.055V835.721H809.064L807.064 835.055Z" fill="#8DB0FF"/>
<path d="M809.063 835.055V835.721H811.063L809.063 835.055Z" fill="#C6D7FF"/>
<path d="M567.145 835.721V836.388H793.069L773.076 835.721H727.091H567.145Z" fill="#5286FF"/>
<path d="M793.069 835.721V836.388H797.734L793.069 835.721Z" fill="#8DB0FF"/>
<path d="M797.734 835.721V836.388H801.733L797.734 835.721Z" fill="#C6D7FF"/>
<path d="M1135.62 835.721V836.388H1310.9L1294.9 835.721H1259.58H1135.62ZM1384.87 835.721V836.388H1560.15L1544.15 835.721H1508.83H1384.87Z" fill="#5286FF"/>
<path d="M1559.48 836.388V902.366H1560.15V856.381L1559.48 836.388Z" fill="#C6D7FF"/>
<path d="M825.725 899.7V900.367H827.724L825.725 899.7Z" fill="#C6D7FF"/>
<path d="M820.393 900.366V901.033H822.392L820.393 900.366Z" fill="#8DB0FF"/>
<path d="M822.393 900.366V901.033H824.392L822.393 900.366Z" fill="#5286FF"/>
<path d="M809.73 901.033V901.699H812.396L809.73 901.033Z" fill="#C6D7FF"/>
<path d="M812.396 901.033V901.699H814.395L812.396 901.033Z" fill="#8DB0FF"/>
<path d="M814.395 901.033V901.699H816.394L814.395 901.033Z" fill="#5286FF"/>
<path d="M793.069 901.699V902.366H799.067L793.069 901.699Z" fill="#C6D7FF"/>
<path d="M799.067 901.699V902.366H803.066L799.067 901.699Z" fill="#8DB0FF"/>
<path d="M803.066 901.699V902.366H806.398L803.066 901.699ZM735.755 1064.31V1064.98H738.421L735.755 1064.31Z" fill="#5286FF"/>
<path d="M738.42 1064.31V1064.98H741.086L738.42 1064.31Z" fill="#8DB0FF"/>
<path d="M741.086 1064.31V1064.98H744.419L741.086 1064.31Z" fill="#C6D7FF"/>
<path d="M729.757 1064.98V1065.64H731.756L729.757 1064.98Z" fill="#8DB0FF"/>
<path d="M731.756 1064.98V1065.64H733.755L731.756 1064.98Z" fill="#C6D7FF"/>
<path d="M454.515 1288.9C447.025 1290.85 439.54 1297.42 433.189 1301.74C425.494 1306.96 417.749 1311.12 411.508 1318.29C397.731 1334.1 395.182 1357.15 402.612 1376.21C406.931 1387.28 413.561 1397.17 420.297 1406.86C422.481 1410 428.82 1415.8 429.115 1419.53C429.296 1421.83 426.816 1424.45 425.574 1426.19C421.953 1431.26 418.019 1436.15 414.831 1441.52C408.026 1452.96 402.631 1473.68 404.621 1486.84C407.52 1506 423.224 1520.61 438.521 1530.6C443.631 1533.93 448.769 1537.21 453.849 1540.6C455.846 1541.93 459.31 1543.43 460.379 1545.7C461.455 1547.98 459.666 1551.86 459.096 1554.15C457.65 1559.94 457.196 1566.19 456.628 1572.14C454.861 1590.64 458.781 1607.34 471.369 1621.45C482.55 1633.98 500.015 1638.61 515.828 1641.98C521.174 1643.12 534.985 1642.18 538.592 1646.4C543.586 1652.26 544.368 1665.47 546.829 1672.78C551.44 1686.46 564.741 1702.67 577.808 1708.91C591.614 1715.5 609.176 1715.73 623.792 1712.62C630.306 1711.24 642.566 1705.71 648.994 1707.36C653.648 1708.56 658.495 1719.87 661.839 1723.43C672.649 1734.91 686.278 1746.26 702.433 1748.56C723.079 1751.5 739.62 1745.37 757.081 1735.02C762.853 1731.6 771.376 1721.82 777.741 1720.85C780.287 1720.46 782.973 1722.75 785.072 1723.89C789.797 1726.44 794.735 1728.64 799.734 1730.62C812.176 1735.54 830.563 1738.48 843.719 1735.49C861.173 1731.54 876.668 1720.81 887.011 1706.1C891.043 1700.37 894.562 1694.29 897.848 1688.1C899.167 1685.62 900.553 1681.55 903.172 1680.15C907.191 1678.01 917.488 1681.05 922.359 1680.71C938.014 1679.64 953.996 1678.14 967.678 1669.38C986.378 1657.41 996.648 1636.55 1000.17 1615.46C1001.47 1607.7 999.734 1594.26 1003.67 1587.54C1006.78 1582.24 1020.76 1578.76 1026.32 1576.23C1036.87 1571.44 1047.76 1562.17 1054.48 1552.82C1069.84 1531.48 1069.47 1506.46 1063.06 1482.17C1061.62 1476.73 1059.69 1471.35 1057.46 1466.18C1056.41 1463.74 1054.02 1460.23 1054.25 1457.51C1054.5 1454.58 1057.73 1452.12 1059.65 1450.18C1063.78 1445.98 1068.55 1441.07 1071.84 1436.19C1081.49 1421.9 1089.59 1400.99 1087.44 1383.54C1084.83 1362.17 1076.29 1344.52 1061.53 1328.92C1056.55 1323.65 1050.48 1318.95 1044.99 1314.23C1043 1312.52 1039.51 1310.7 1038.54 1308.17C1036.43 1302.69 1042.16 1291.68 1042.31 1285.57C1042.55 1275.97 1044.23 1265.77 1043.59 1256.25C1042.48 1239.63 1033.48 1221.87 1021.65 1210.29C1009.54 1198.43 991.743 1191.55 975.675 1186.94C969.744 1185.23 956.215 1185.93 952.116 1181.35C947.284 1175.93 948.417 1163.07 946.491 1156.28C942.099 1140.81 929.797 1121.89 917.028 1112.23C898.527 1098.22 871.116 1095.1 849.05 1100.55C841.426 1102.43 833.842 1104.48 826.391 1106.96C823.699 1107.86 819.467 1110.44 816.615 1110.06C814.595 1109.78 813.342 1107.06 812.203 1105.63C809.057 1101.67 805.638 1098.24 801.733 1095.02C787.724 1083.48 773.376 1069.35 755.082 1066.05C725.938 1060.8 704.765 1073.36 683.106 1091.47C677.474 1096.18 671.756 1106.84 665.112 1109.54C662.733 1110.51 659.42 1108.7 657.114 1108.02C649.478 1105.76 642.591 1101.41 635.122 1098.81C618.877 1093.14 596.919 1093.34 581.14 1100.51C560.819 1109.74 549.814 1131.62 543.152 1151.62C541.249 1157.33 539.53 1163.11 538.069 1168.94C537.462 1171.38 537.203 1175.37 535.336 1177.21C531.993 1180.49 520.984 1177.91 516.495 1178.47C503.358 1180.08 487.999 1185.63 475.842 1190.85C466.057 1195.05 459.428 1204.22 454.984 1213.6C443.881 1237.01 448.868 1264.49 454.515 1288.9Z" fill="white"/>
<path d="M742.419 1072.98V1073.64H745.085L742.419 1072.98Z" fill="#8DB0FF"/>
<path d="M741.959 1074.33C738.594 1076.48 739.314 1084.82 738.974 1088.3C737.921 1099.18 737.088 1110.02 737.088 1120.96C737.088 1125.04 736.208 1130.3 737.301 1134.25C738.141 1137.3 742.646 1137.11 744.878 1135.61C747.951 1133.54 747.504 1125.62 747.737 1122.29C748.61 1109.5 750.057 1096.47 749.743 1083.64C749.65 1080.14 747.551 1070.76 741.959 1074.33Z" fill="#014DFF"/>
<path d="M727.757 1135.62C727.824 1127.84 729.09 1120.08 729.09 1112.3V1096.3V1087.64C729.09 1085.37 728.784 1070.1 722.919 1076.04C720.433 1078.57 721.093 1086.92 721.093 1090.3C721.086 1101.77 719.96 1113.58 720.453 1124.96C720.713 1131.02 720.826 1135.47 727.757 1135.62Z" fill="#014DFF"/>
<path d="M761.08 1077.64C756.508 1095.31 756.415 1114.82 756.415 1132.96C770.51 1130.84 769.077 1101.53 769.077 1090.3C769.077 1084.24 767.911 1078.73 761.08 1077.64Z" fill="#014DFF"/>
<path d="M1341.55 1078.31V1078.97H1344.22L1341.55 1078.31Z" fill="#5286FF"/>
<path d="M1344.22 1078.31V1078.97H1348.22L1344.22 1078.31Z" fill="#8DB0FF"/>
<path d="M1348.22 1078.31V1078.97H1354.88L1348.22 1078.31Z" fill="#C6D7FF"/>
<path d="M1545.48 1201.6L1587.47 1145.62C1581.29 1137.22 1569.43 1130.73 1560.81 1124.96C1538.97 1110.33 1516.13 1097.4 1491.5 1088.03C1382.19 1046.4 1220.45 1053.31 1161.45 1171.61C1153.36 1187.84 1148.15 1206.21 1146.4 1224.26C1144.56 1243.22 1145.18 1262.83 1148.56 1281.58C1150.76 1293.75 1154.49 1305.6 1159.52 1316.9C1173.28 1347.78 1199.44 1370.01 1228.26 1386.39C1279.27 1415.4 1337.41 1424.91 1393.54 1438.94C1442.75 1451.25 1512.54 1468.91 1529.01 1524.16C1546.22 1581.91 1511.51 1638.01 1456.18 1657.22C1394.42 1678.67 1317.17 1670.21 1258.91 1641.29C1235.97 1629.9 1214.57 1616.68 1194.27 1601.04C1187.45 1595.78 1180.79 1590.25 1174.28 1584.62C1171.92 1582.58 1168.74 1578.48 1165.64 1577.7C1162.03 1576.81 1156.27 1586.39 1154.2 1588.81C1146.42 1597.84 1138.77 1606.99 1131.12 1616.13C1127.92 1619.96 1122.8 1624.19 1120.77 1628.79C1119.39 1631.89 1124.31 1634.8 1126.29 1636.51C1133.03 1642.3 1139.87 1648 1146.95 1653.37C1177.67 1676.62 1210.84 1696.25 1246.92 1709.97C1264.89 1716.8 1283.41 1722.2 1302.23 1726.09C1397.11 1745.73 1518.41 1734.8 1578.12 1648.12C1594.12 1624.9 1603.93 1596.89 1606.19 1568.81C1608.01 1546.16 1607.52 1522.12 1600.99 1500.17C1573.98 1409.52 1471.54 1381.38 1389.54 1363.27C1375.24 1360.11 1361.04 1356.55 1346.88 1352.81C1306.76 1342.21 1256.02 1326.99 1232.16 1290.24C1210.12 1256.29 1214.83 1206.49 1241.11 1176.28C1260.37 1154.14 1287.78 1140.76 1316.23 1134.96C1373.28 1123.33 1436.64 1135.64 1487.5 1163.16C1500.15 1169.99 1512.46 1177.53 1524.16 1185.89C1531.17 1190.91 1537.83 1197.7 1545.48 1201.6Z" fill="white"/>
<path d="M1364.21 1078.31V1078.97H1372.88L1364.21 1078.31Z" fill="#C6D7FF"/>
<path d="M1372.88 1078.31V1078.97H1377.54L1372.88 1078.31Z" fill="#8DB0FF"/>
<path d="M1377.54 1078.31V1078.97H1381.54L1377.54 1078.31Z" fill="#5286FF"/>
<path d="M721.093 1078.97V1080.97H721.759L721.093 1078.97Z" fill="#C6D7FF"/>
<path d="M1332.22 1078.97V1079.64H1334.22L1332.22 1078.97Z" fill="#5286FF"/>
<path d="M1334.22 1078.97V1079.64H1336.22L1334.22 1078.97Z" fill="#8DB0FF"/>
<path d="M1336.22 1078.97V1079.64H1338.89L1336.22 1078.97ZM1384.87 1078.97V1079.64H1387.54L1384.87 1078.97Z" fill="#C6D7FF"/>
<path d="M1387.54 1078.97V1079.64H1390.2L1387.54 1078.97Z" fill="#8DB0FF"/>
<path d="M1390.2 1078.97V1079.64H1392.87L1390.2 1078.97Z" fill="#5286FF"/>
<path d="M1328.89 1079.64V1080.31H1330.89L1328.89 1079.64ZM1394.87 1079.64V1080.31H1396.87L1394.87 1079.64Z" fill="#C6D7FF"/>
<path d="M1396.87 1079.64V1080.31H1398.87L1396.87 1079.64Z" fill="#8DB0FF"/>
<path d="M1322.89 1080.31V1080.97H1324.89L1322.89 1080.31ZM1402.2 1080.31V1080.97H1404.2L1402.2 1080.31Z" fill="#C6D7FF"/>
<path d="M749.75 1081.64V1083.64H750.416L749.75 1081.64Z" fill="#C6D7FF"/>
<path d="M721.093 1082.31V1084.31H721.759L721.093 1082.31ZM729.09 1082.31V1106.3H729.757C729.757 1099.37 731.763 1088.68 729.09 1082.31Z" fill="#5286FF"/>
<path d="M711.097 1132.29C711.37 1125.86 712.263 1119.4 712.423 1112.96C712.523 1108.74 712.429 1104.52 712.429 1100.3C712.429 1095.61 712.843 1089.46 710.923 1085.07C708.997 1080.68 703.572 1085.08 702.146 1087.66C697.968 1095.27 700.194 1109.97 700.987 1118.29C701.3 1121.59 700.493 1125.3 702.439 1128.22C704.339 1131.07 707.978 1131.64 711.097 1132.29Z" fill="#014DFF"/>
<path d="M738.421 1084.31V1086.3H739.087L738.421 1084.31Z" fill="#C6D7FF"/>
<path d="M769.077 1086.3V1089.64H769.744L769.077 1086.3Z" fill="#C6D7FF"/>
<path d="M738.42 1087.64V1090.3H739.087L738.42 1087.64Z" fill="#5286FF"/>
<path d="M720.427 1089.64V1097.63H721.093L720.427 1089.64Z" fill="#C6D7FF"/>
<path d="M711.763 1090.3V1092.3H712.429L711.763 1090.3ZM758.414 1090.3V1092.3H759.08L758.414 1090.3Z" fill="#5286FF"/>
<path d="M700.433 1090.97V1092.97H701.1L700.433 1090.97Z" fill="#8DB0FF"/>
<path d="M769.077 1090.97V1093.64H769.744L769.077 1090.97Z" fill="#C6D7FF"/>
<path d="M749.083 1091.64V1097.63H749.75L749.083 1091.64Z" fill="#5286FF"/>
<path d="M737.754 1092.3V1094.3H738.42L737.754 1092.3Z" fill="#C6D7FF"/>
<path d="M700.433 1092.97V1095.63H701.1L700.433 1092.97Z" fill="#5286FF"/>
<path d="M781.879 1093.66C776.094 1096.87 775.954 1111.21 775.268 1116.96C775.041 1118.81 774.048 1122.95 775.155 1124.56C776.608 1126.66 781.259 1124.94 782.919 1123.92C785.371 1122.42 785.011 1119.47 785.358 1116.96C786.191 1110.9 789.117 1102.4 788.077 1096.37C787.631 1093.79 784.098 1092.44 781.879 1093.66Z" fill="#014DFF"/>
<path d="M737.754 1094.3V1096.3H738.42L737.754 1094.3Z" fill="#8DB0FF"/>
<path d="M788.404 1094.3V1096.3H789.07L788.404 1094.3Z" fill="#C6D7FF"/>
<path d="M601.133 1094.97V1095.63H603.132L601.133 1094.97Z" fill="#8DB0FF"/>
<path d="M603.132 1094.97V1095.63H605.798L603.132 1094.97ZM613.129 1094.97V1095.63H615.795L613.129 1094.97Z" fill="#C6D7FF"/>
<path d="M615.795 1094.97V1095.63H617.794L615.795 1094.97Z" fill="#8DB0FF"/>
<path d="M757.748 1094.97V1096.97H758.414L757.748 1094.97Z" fill="#8DB0FF"/>
<path d="M691.769 1124.29C693.309 1116.01 693.489 1103.71 691.103 1095.63C677.654 1100.21 678.834 1120.57 691.769 1124.29Z" fill="#014DFF"/>
<path d="M768.411 1095.63V1097.63H769.077L768.411 1095.63Z" fill="#5286FF"/>
<path d="M737.754 1096.3V1098.3H738.42L737.754 1096.3Z" fill="#5286FF"/>
<path d="M720.427 1097.63V1106.96H721.093L720.427 1097.63ZM749.084 1097.63V1102.3H749.75L749.084 1097.63ZM768.411 1097.63V1099.63H769.077L768.411 1097.63Z" fill="#8DB0FF"/>
<path d="M859.047 1097.63V1098.3H861.047L859.047 1097.63Z" fill="#5286FF"/>
<path d="M861.046 1097.63V1098.3H869.044L861.046 1097.63Z" fill="#8DB0FF"/>
<path d="M873.042 1097.63V1098.3H876.375L873.042 1097.63Z" fill="#C6D7FF"/>
<path d="M691.77 1098.3V1101.63H692.436L691.77 1098.3Z" fill="#8DB0FF"/>
<path d="M712.429 1099.63V1109.63H713.096L712.429 1099.63ZM768.411 1099.63V1101.63H769.077L768.411 1099.63Z" fill="#C6D7FF"/>
<path d="M699.767 1100.3V1112.96H700.433L699.767 1100.3ZM757.081 1100.3V1102.3H757.747L757.081 1100.3Z" fill="#C6D7FF"/>
<path d="M737.087 1100.97V1102.97H737.754L737.087 1100.97Z" fill="#C6D7FF"/>
<path d="M691.769 1101.63V1107.63H692.436L691.769 1101.63Z" fill="#5286FF"/>
<path d="M749.083 1102.3V1106.3H749.75L749.083 1102.3Z" fill="#C6D7FF"/>
<path d="M737.088 1102.97V1105.63H737.754L737.088 1102.97Z" fill="#8DB0FF"/>
<path d="M796.401 1102.97L793.735 1118.96L804.398 1114.3L796.401 1102.97Z" fill="#014DFF"/>
<path d="M757.081 1103.63V1105.63H757.747L757.081 1103.63Z" fill="#5286FF"/>
<path d="M598.467 1104.96V1106.3L599.8 1104.96H598.467Z" fill="#8DB0FF"/>
<path d="M599.134 1105.63C600.169 1112.54 604.397 1118.63 607.131 1124.96C609.092 1129.5 611.422 1133.87 613.631 1138.29C615.202 1141.43 620.236 1155.58 624.492 1155C631.435 1154.05 626.249 1142.93 624.997 1139.62C620.553 1127.88 616.124 1102.49 599.134 1105.63Z" fill="#014DFF"/>
<path d="M681.106 1104.96V1108.96H681.773L681.106 1104.96Z" fill="#C6D7FF"/>
<path d="M767.744 1104.96V1106.96H768.411L767.744 1104.96Z" fill="#8DB0FF"/>
<path d="M623.125 1106.3C624.11 1117.57 630.208 1133.15 635.788 1142.95C646.451 1135.37 639.641 1125.42 634.547 1116.29C631.852 1111.46 629.331 1105.71 623.125 1106.3Z" fill="#014DFF"/>
<path d="M737.087 1105.63V1108.3H737.754L737.087 1105.63Z" fill="#5286FF"/>
<path d="M729.09 1106.3V1110.96H729.757L729.09 1106.3Z" fill="#8DB0FF"/>
<path d="M720.427 1106.96V1118.96H721.093L720.427 1106.96Z" fill="#5286FF"/>
<path d="M767.744 1106.96V1108.96H768.411L767.744 1106.96Z" fill="#C6D7FF"/>
<path d="M863.046 1106.96V1107.63H867.711L863.046 1106.96Z" fill="#C6D7FF"/>
<path d="M756.415 1107.63V1110.3H757.081L756.415 1107.63Z" fill="#C6D7FF"/>
<path d="M847.051 1153.62H847.717L862.113 1123.63L867.044 1107.63C863.759 1107.63 859.947 1107.28 857.188 1109.43C854.055 1111.88 852.549 1117.33 851.276 1120.96C847.937 1130.49 840.227 1144.39 847.051 1153.62Z" fill="#014DFF"/>
<path d="M585.142 1108.83C578.948 1109.88 584.267 1118.59 585.651 1121.63C590.886 1133.1 596.036 1144.64 602.279 1155.61C603.909 1158.48 606.85 1165.94 611.12 1164.84C617.008 1163.31 613.642 1156.38 611.959 1152.95C606.432 1141.69 600.918 1130.46 594.561 1119.63C592.867 1116.74 589.277 1108.13 585.142 1108.83Z" fill="#014DFF"/>
<path d="M889.037 1110.3C886.618 1109.8 882.959 1108.1 880.573 1109.2C877.321 1110.7 875.701 1115.98 874.209 1118.96C869.81 1127.77 865.558 1136.64 861.506 1145.62C859.647 1149.75 854.295 1159.17 857.541 1163.46C859.813 1166.46 862.586 1164.65 864.352 1162.27C867.797 1157.61 870.49 1152.07 873.189 1146.95C875.715 1142.16 877.787 1137.13 880.207 1132.29C883.539 1125.62 888.69 1117.87 889.037 1110.3Z" fill="#014DFF"/>
<path d="M748.417 1109.63V1112.3H749.083L748.417 1109.63Z" fill="#5286FF"/>
<path d="M756.415 1110.3V1112.3H757.081L756.415 1110.3Z" fill="#8DB0FF"/>
<path d="M729.09 1110.96V1114.96H729.757L729.09 1110.96Z" fill="#C6D7FF"/>
<path d="M836.388 1138.95L845.052 1110.96C841.479 1111.26 836.708 1112.07 834.062 1114.72C828.277 1120.51 828.804 1135.25 836.388 1138.95Z" fill="#014DFF"/>
<path d="M736.421 1111.63V1116.29H737.088L736.421 1111.63Z" fill="#C6D7FF"/>
<path d="M642.453 1112.3L649.117 1126.96C652.547 1125.32 654.309 1122.37 655.782 1118.96L642.453 1112.3Z" fill="#014DFF"/>
<path d="M672.442 1112.3L671.776 1114.96L673.775 1112.3H672.442Z" fill="#014DFF"/>
<path d="M681.773 1112.3V1116.96H682.439L681.773 1112.3Z" fill="#5286FF"/>
<path d="M748.417 1112.3V1114.3H749.083L748.417 1112.3Z" fill="#8DB0FF"/>
<path d="M756.415 1112.3V1114.96H757.081L756.415 1112.3Z" fill="#5286FF"/>
<path d="M767.078 1112.3V1114.3H767.744L767.078 1112.3Z" fill="#8DB0FF"/>
<path d="M673.109 1112.96V1114.96H673.775L673.109 1112.96Z" fill="#5286FF"/>
<path d="M748.417 1114.3V1116.29H749.083L748.417 1114.3Z" fill="#C6D7FF"/>
<path d="M901.1 1116.38C897.488 1117.98 894.562 1125 892.649 1128.29C886.298 1139.23 880.373 1150.42 874.489 1161.61C872.962 1164.51 868.651 1174.41 876.375 1172.42C880.886 1171.26 883.752 1164.56 885.985 1160.95C893.122 1149.42 903.566 1134.8 907.018 1121.63C907.831 1118.52 904.259 1114.99 901.1 1116.38Z" fill="#014DFF"/>
<path d="M700.433 1116.29V1119.63H701.1L700.433 1116.29ZM711.763 1116.29V1120.29H712.429L711.763 1116.29Z" fill="#5286FF"/>
<path d="M736.421 1116.29V1134.29H737.088L736.421 1116.29Z" fill="#8DB0FF"/>
<path d="M822.392 1116.96L820.393 1117.63L821.726 1120.96L822.392 1116.96Z" fill="#014DFF"/>
<path d="M755.748 1117.63V1120.96H756.414L755.748 1117.63Z" fill="#C6D7FF"/>
<path d="M793.069 1117.63V1119.63H793.735L793.069 1117.63Z" fill="#C6D7FF"/>
<path d="M572.476 1118.29C565.496 1121.92 567.01 1126.69 569.546 1132.96C573.462 1142.63 579.065 1151.88 584.189 1160.95C586.231 1164.56 588.226 1169.45 591.863 1171.77C601.39 1177.85 596.952 1162.93 595.3 1159.61L591.301 1151.62C588.952 1146.92 586.672 1142.19 584.088 1137.62C580.389 1131.08 576.683 1124.54 572.476 1118.29Z" fill="#014DFF"/>
<path d="M728.424 1118.29V1121.63H729.09L728.424 1118.29ZM747.751 1118.29V1120.29H748.417L747.751 1118.29Z" fill="#5286FF"/>
<path d="M766.411 1118.96V1120.96H767.078L766.411 1118.96Z" fill="#8DB0FF"/>
<path d="M785.072 1118.96V1120.96H785.738L785.072 1118.96Z" fill="#C6D7FF"/>
<path d="M700.433 1119.63V1122.29H701.1L700.433 1119.63ZM774.408 1119.63V1121.63H775.075L774.408 1119.63Z" fill="#8DB0FF"/>
<path d="M711.763 1120.29V1123.63H712.429L711.763 1120.29Z" fill="#8DB0FF"/>
<path d="M755.748 1120.96V1125.62H756.415L755.748 1120.96Z" fill="#8DB0FF"/>
<path d="M543.152 1637.45C557.825 1640.18 573.27 1638.52 587.804 1641.79C619.153 1648.86 634.933 1673.12 651.783 1698.1C674.249 1692.9 696.954 1677.26 721.093 1682.7C734.702 1685.76 746.218 1691.98 757.747 1699.65C761.759 1702.33 770.043 1710.29 775.048 1709.93C779.12 1709.64 786.218 1700.29 789.07 1697.43C799.36 1687.14 809.703 1676.48 823.059 1670.32C848.61 1658.53 871.543 1670.04 897.701 1670.11C899.787 1662.86 903.799 1655.88 906.491 1648.78C912.083 1634 917.434 1617.27 929.697 1606.32C946.471 1591.37 972.349 1586.4 993.669 1581.47C993.362 1566.67 988.497 1552.06 988.137 1537.49C987.757 1522.12 991.736 1504.59 1001.35 1492.17C1008.06 1483.5 1017.45 1476.52 1025.66 1469.32C1031.06 1464.58 1035.73 1459 1041.65 1454.85C1038.45 1443.74 1030.46 1433.83 1024.36 1424.19C1015.89 1410.82 1008.62 1395.46 1007.11 1379.54C1004.86 1355.86 1021 1334.14 1026.99 1312.23C1016.79 1305.94 1006.58 1299.62 996.334 1293.38C993.842 1291.86 990.743 1291.48 988.404 1289.77C986.005 1288.01 984.718 1285.15 982.326 1283.31C975.641 1278.17 969.064 1274.47 963.839 1267.58C947.284 1245.72 945.678 1215.9 942.352 1189.6C912.356 1188.32 876.075 1188.04 851.05 1169.01C835.068 1156.85 823.292 1137.11 811.729 1120.96C799.294 1124.52 787.937 1132.06 776.408 1137.51C773.335 1138.97 769.65 1137.99 766.411 1139.01C755.648 1142.43 745.325 1146.6 733.755 1145.5C717.361 1143.95 702.599 1140.21 687.771 1132.79C682.699 1130.26 677.514 1127.99 672.442 1125.46C670.41 1124.44 667.511 1122.31 665.122 1122.84C660.181 1123.93 655.072 1133.96 651.816 1137.62C641.005 1149.8 630.545 1162.31 616.461 1170.81C602.109 1179.47 588.354 1183.07 571.809 1184.21C565.189 1184.66 558.445 1185.52 551.816 1185.6C548.82 1185.64 544.066 1184.72 541.442 1186.48C538.245 1188.62 537.823 1200.46 537.014 1204.27C535.879 1209.6 535.862 1216.63 533.994 1221.59C531.019 1229.49 526.255 1238.59 522.32 1246.25C514.231 1261.99 498.74 1273.96 483.839 1282.95C478.696 1286.06 465.482 1289.18 462.591 1294.49C460.406 1298.51 465.761 1309.27 466.744 1313.56C470.003 1327.78 472.724 1344.42 470.099 1358.88C467.159 1375.07 460.646 1388.24 451.183 1401.53C448.345 1405.52 438.493 1415.19 439.369 1420.19C440.015 1423.88 443.988 1426.74 446.173 1429.52C451.403 1436.17 457.058 1442.83 462.081 1449.58C470.067 1460.31 475.141 1478.33 476.395 1491.5C477.432 1502.4 474.864 1516.22 472.26 1526.82C471.383 1530.4 467.531 1538.35 469.863 1541.73C472.948 1546.19 483.633 1549.26 488.504 1551.5C497.083 1555.45 505.217 1561.82 512.496 1567.78C533.276 1584.83 539.723 1611.98 543.152 1637.45Z" fill="#0040D3"/>
<path d="M728.424 1121.63V1124.29H729.09L728.424 1121.63Z" fill="#8DB0FF"/>
<path d="M747.751 1121.63V1123.63H748.417L747.751 1121.63Z" fill="#C6D7FF"/>
<path d="M691.77 1122.29V1124.96H692.436L691.77 1122.29Z" fill="#5286FF"/>
<path d="M700.433 1122.29V1124.96H701.1L700.433 1122.29Z" fill="#C6D7FF"/>
<path d="M711.763 1123.63V1125.62H712.429L711.763 1123.63Z" fill="#C6D7FF"/>
<path d="M728.424 1124.29V1126.96H729.09L728.424 1124.29Z" fill="#C6D7FF"/>
<path d="M755.748 1125.62V1130.96H756.414L755.748 1125.62Z" fill="#5286FF"/>
<path d="M775.741 1125.62V1126.29H777.741L775.741 1125.62Z" fill="#C6D7FF"/>
<path d="M747.084 1126.29V1128.29H747.751L747.084 1126.29Z" fill="#8DB0FF"/>
<path d="M829.724 1126.29V1129.62H830.39L829.724 1126.29Z" fill="#5286FF"/>
<path d="M720.427 1127.62V1129.62H721.093L720.427 1127.62Z" fill="#5286FF"/>
<path d="M916.361 1128.29C912.389 1134.3 908.264 1140.13 904.492 1146.28L896.754 1158.95C894.975 1161.82 886.125 1172.6 888.417 1175.87C891.389 1180.11 898.327 1172.18 899.98 1170.28C901.799 1168.19 903.759 1166.26 905.691 1164.28C912.629 1157.16 932.936 1136.76 916.361 1128.29Z" fill="#014DFF"/>
<path d="M727.757 1130.29V1132.96H728.424L727.757 1130.29Z" fill="#5286FF"/>
<path d="M755.748 1130.96L756.414 1133.62H757.081L755.748 1130.96Z" fill="#8DB0FF"/>
<path d="M727.757 1132.96V1134.95H728.424L727.757 1132.96Z" fill="#8DB0FF"/>
<path d="M559.147 1134.29C552.256 1144.83 559.579 1154.75 565.153 1164.28C569.117 1171.06 572.443 1177.01 581.139 1174.94C580.299 1170.23 577.433 1165.86 575.306 1161.61C570.859 1152.72 566.054 1141.51 559.147 1134.29Z" fill="#014DFF"/>
<path d="M740.42 1136.29V1136.95H743.085L740.42 1136.29Z" fill="#5286FF"/>
<path d="M922.359 1136.29V1139.62H923.026L922.359 1136.29Z" fill="#8DB0FF"/>
<path d="M770.41 1137.62V1138.29H773.742L770.41 1137.62Z" fill="#5286FF"/>
<path d="M773.742 1137.62V1138.29H775.742L773.742 1137.62Z" fill="#8DB0FF"/>
<path d="M555.148 1141.62V1144.29H555.815L555.148 1141.62Z" fill="#8DB0FF"/>
<path d="M715.095 1142.95V1143.62H717.094L715.095 1142.95Z" fill="#C6D7FF"/>
<path d="M718.427 1143.62V1144.29H720.427L718.427 1143.62Z" fill="#5286FF"/>
<path d="M843.719 1143.62V1145.62H844.385L843.719 1143.62Z" fill="#5286FF"/>
<path d="M726.424 1144.29V1144.95H728.424L726.424 1144.29Z" fill="#8DB0FF"/>
<path d="M1344.89 1144.29V1144.95H1348.22L1344.89 1144.29Z" fill="#C6D7FF"/>
<path d="M1348.22 1144.29V1144.95H1354.88L1348.22 1144.29Z" fill="#8DB0FF"/>
<path d="M1354.88 1144.29V1144.95H1360.21L1354.88 1144.29Z" fill="#5286FF"/>
<path d="M1360.21 1144.29V1144.95H1367.54L1360.21 1144.29Z" fill="#8DB0FF"/>
<path d="M1367.54 1144.29V1144.95H1371.54L1367.54 1144.29Z" fill="#C6D7FF"/>
<path d="M731.756 1144.95V1145.62H734.422L731.756 1144.95Z" fill="#5286FF"/>
<path d="M734.422 1144.95V1145.62H742.419L734.422 1144.95Z" fill="#8DB0FF"/>
<path d="M1337.55 1144.95V1145.62H1339.55L1337.55 1144.95Z" fill="#8DB0FF"/>
<path d="M1339.55 1144.95V1145.62H1342.22L1339.55 1144.95ZM1374.88 1144.95V1145.62H1377.54L1374.88 1144.95Z" fill="#5286FF"/>
<path d="M1377.54 1144.95V1145.62H1380.21L1377.54 1144.95Z" fill="#8DB0FF"/>
<path d="M1380.21 1144.95V1145.62H1382.21L1380.21 1144.95Z" fill="#C6D7FF"/>
<path d="M1385.54 1145.62V1146.28H1387.54L1385.54 1145.62Z" fill="#8DB0FF"/>
<path d="M1390.2 1146.28V1146.95H1392.2L1390.2 1146.28Z" fill="#5286FF"/>
<path d="M930.357 1150.28L904.365 1178.27C915.868 1181.67 921.553 1172.97 927.957 1164.94C931.789 1160.15 936.714 1155.03 930.357 1150.28Z" fill="#014DFF"/>
<path d="M549.817 1154.95C547.493 1164.99 546.43 1180.82 561.813 1176.27C559.821 1168.99 554.983 1160.45 549.817 1154.95Z" fill="#014DFF"/>
<path d="M945.685 1158.28V1160.28H946.351L945.685 1158.28Z" fill="#5286FF"/>
<path d="M547.151 1162.95V1166.28H547.817L547.151 1162.95Z" fill="#5286FF"/>
<path d="M859.713 1165.61V1166.28H861.713L859.713 1165.61Z" fill="#8DB0FF"/>
<path d="M926.358 1180.27L940.353 1179.61L938.354 1168.28C933.309 1169.7 929.05 1175.97 926.358 1180.27Z" fill="#014DFF"/>
<path d="M948.351 1173.61V1176.27H949.017L948.351 1173.61Z" fill="#C6D7FF"/>
<path d="M575.142 1175.61V1176.27H578.474L575.142 1175.61Z" fill="#8DB0FF"/>
<path d="M555.148 1176.94V1177.61H560.48L555.148 1176.94Z" fill="#C6D7FF"/>
<path d="M889.037 1176.94V1177.61H892.369L889.037 1176.94Z" fill="#C6D7FF"/>
<path d="M515.828 1177.61V1178.27H518.494L515.828 1177.61Z" fill="#5286FF"/>
<path d="M518.494 1177.61V1178.27H534.488L518.494 1177.61Z" fill="#8DB0FF"/>
<path d="M905.698 1178.94V1179.61H913.029L905.698 1178.94Z" fill="#8DB0FF"/>
<path d="M926.358 1180.27V1180.94H928.357L926.358 1180.27Z" fill="#C6D7FF"/>
<path d="M928.357 1180.27V1180.94H934.355L928.357 1180.27Z" fill="#8DB0FF"/>
<path d="M934.355 1180.27V1180.94H936.355L934.355 1180.27Z" fill="#C6D7FF"/>
<path d="M584.472 1182.27V1182.94H586.471L584.472 1182.27Z" fill="#C6D7FF"/>
<path d="M576.474 1182.94V1183.61H578.474L576.474 1182.94Z" fill="#C6D7FF"/>
<path d="M578.474 1182.94V1183.61H580.473L578.474 1182.94Z" fill="#8DB0FF"/>
<path d="M580.473 1182.94V1183.61H582.472L580.473 1182.94Z" fill="#5286FF"/>
<path d="M954.349 1182.94V1183.61H956.348L954.349 1182.94Z" fill="#5286FF"/>
<path d="M567.811 1183.61V1184.27H570.477L567.811 1183.61Z" fill="#C6D7FF"/>
<path d="M570.477 1183.61V1184.27H572.476L570.477 1183.61Z" fill="#8DB0FF"/>
<path d="M572.476 1183.61V1184.27H574.475L572.476 1183.61Z" fill="#5286FF"/>
<path d="M958.347 1183.61V1184.27H960.346L958.347 1183.61Z" fill="#C6D7FF"/>
<path d="M559.147 1184.27V1184.94H561.146L559.147 1184.27Z" fill="#C6D7FF"/>
<path d="M561.146 1184.27V1184.94H563.812L561.146 1184.27Z" fill="#8DB0FF"/>
<path d="M563.812 1184.27V1184.94H565.811L563.812 1184.27Z" fill="#5286FF"/>
<path d="M549.15 1184.94V1185.6H551.816L549.15 1184.94Z" fill="#C6D7FF"/>
<path d="M551.816 1184.94V1185.6H554.482L551.816 1184.94Z" fill="#8DB0FF"/>
<path d="M554.482 1184.94V1185.6H556.481L554.482 1184.94Z" fill="#5286FF"/>
<path d="M540.486 1185.6V1186.27H542.486L540.486 1185.6ZM897.034 1185.6V1186.27H899.033L897.034 1185.6Z" fill="#5286FF"/>
<path d="M900.367 1185.6V1186.27H902.366L900.367 1185.6Z" fill="#C6D7FF"/>
<path d="M904.365 1186.27V1186.94H906.365L904.365 1186.27Z" fill="#5286FF"/>
<path d="M906.365 1186.27V1186.94H908.364L906.365 1186.27Z" fill="#8DB0FF"/>
<path d="M513.829 1186.94V1187.6H515.828L513.829 1186.94Z" fill="#C6D7FF"/>
<path d="M517.161 1186.94V1187.6H519.16L517.161 1186.94Z" fill="#5286FF"/>
<path d="M513.829 1187.6V1188.27L529.823 1198.27L531.823 1187.6H513.829Z" fill="#014DFF"/>
<path d="M527.824 1186.94V1187.6H529.824L527.824 1186.94Z" fill="#5286FF"/>
<path d="M911.696 1186.94V1187.6H913.696L911.696 1186.94Z" fill="#5286FF"/>
<path d="M913.695 1186.94V1187.6H915.695L913.695 1186.94Z" fill="#8DB0FF"/>
<path d="M915.695 1186.94V1187.6H917.694L915.695 1186.94Z" fill="#C6D7FF"/>
<path d="M919.693 1187.6V1188.27H921.693L919.693 1187.6Z" fill="#5286FF"/>
<path d="M921.693 1187.6V1188.27H924.359L921.693 1187.6Z" fill="#8DB0FF"/>
<path d="M924.358 1187.6V1188.27H926.358L924.358 1187.6Z" fill="#C6D7FF"/>
<path d="M929.024 1188.27V1188.94H931.69L929.024 1188.27Z" fill="#5286FF"/>
<path d="M931.689 1188.27V1188.94H933.689L931.689 1188.27Z" fill="#8DB0FF"/>
<path d="M933.689 1188.27V1188.94H936.355L933.689 1188.27Z" fill="#C6D7FF"/>
<path d="M938.354 1188.94V1189.6H940.353L938.354 1188.94Z" fill="#5286FF"/>
<path d="M527.824 1206.93C523.849 1204.72 520.26 1201.93 516.495 1199.38C514.027 1197.71 511.612 1195.98 509.164 1194.28C507.516 1193.14 495.822 1185.99 497.993 1193.62C500.003 1200.67 510.871 1207.39 516.495 1211.5C518.211 1212.75 521.36 1215.93 523.7 1215.29C526.631 1214.48 527.456 1209.42 527.824 1206.93Z" fill="#014DFF"/>
<path d="M952.349 1190.94L953.016 1194.27C954.029 1192.66 953.849 1192.08 952.349 1190.94Z" fill="#014DFF"/>
<path d="M955.682 1216.93C963.299 1212.53 971.876 1204.26 975.675 1196.27C972.789 1195.16 968.124 1193 965.025 1194.03C956.675 1196.81 955.682 1209.92 955.682 1216.93Z" fill="#014DFF"/>
<path d="M475.175 1199.6V1200.93L518.494 1234.92C519.573 1232.29 521.647 1229.14 520.347 1226.26C518.556 1222.29 513.83 1219.15 510.496 1216.54C501.716 1209.69 486.976 1194.52 475.175 1199.6Z" fill="#014DFF"/>
<path d="M959.013 1236.92C964.638 1235.13 969.67 1230.68 974.342 1227.17C977.774 1224.6 981.046 1221.84 984.338 1219.09C987.984 1216.05 993.495 1212.7 995.535 1208.26C997.94 1203.03 989.843 1201.46 986.338 1202.44C982.139 1203.62 978.86 1207.3 975.675 1210.08C967.697 1217.02 956.014 1225.34 959.013 1236.92Z" fill="#014DFF"/>
<path d="M944.352 1204.27V1206.26H945.018L944.352 1204.27Z" fill="#8DB0FF"/>
<path d="M467.178 1208.93V1209.6H469.177L467.178 1208.93Z" fill="#8DB0FF"/>
<path d="M465.944 1210.1C460.448 1212.51 469.221 1219.33 471.177 1221.01C480.378 1228.94 489.571 1237.03 499.167 1244.47C501.587 1246.35 506.919 1251.34 510.277 1249.54C516.121 1246.4 511.804 1241.07 508.495 1238.39C498.697 1230.44 488.985 1221.81 478.507 1214.76C475.49 1212.74 469.778 1208.41 465.944 1210.1Z" fill="#014DFF"/>
<path d="M955.015 1209.6V1212.93H955.682L955.015 1209.6Z" fill="#5286FF"/>
<path d="M955.015 1212.93V1214.93H955.681L955.015 1212.93Z" fill="#8DB0FF"/>
<path d="M964.345 1251.58C971.463 1249.49 978.141 1244.03 984.339 1240.05C988.804 1237.18 993.256 1234.32 997.668 1231.37C1000.15 1229.71 1002.6 1228.02 1005 1226.25C1007.66 1224.29 1011.66 1221.45 1012.9 1218.26C1014.04 1215.36 1011 1213.12 1008.33 1213.62C1003.83 1214.47 999.227 1218.69 995.668 1221.35C987.644 1227.33 979.467 1233.16 971.676 1239.45C967.611 1242.74 961.706 1245.98 964.345 1251.58Z" fill="#014DFF"/>
<path d="M533.822 1215.59V1218.26H534.489L533.822 1215.59Z" fill="#8DB0FF"/>
<path d="M533.822 1218.26V1220.93H534.489L533.822 1218.26Z" fill="#C6D7FF"/>
<path d="M947.018 1219.59V1221.59H947.684L947.018 1219.59Z" fill="#C6D7FF"/>
<path d="M503.166 1257.58C497.449 1253.27 492.101 1248.46 486.505 1243.99C482.771 1241.01 478.947 1238.14 475.175 1235.2C472.979 1233.5 470.739 1231.84 468.511 1230.17C466.916 1228.98 458.324 1221.98 457.466 1227.01C456.78 1231.04 463.98 1235.37 466.511 1237.62C473.881 1244.17 481.28 1250.75 489.171 1256.66C494.354 1260.55 498.573 1263.95 503.166 1257.58Z" fill="#014DFF"/>
<path d="M1021.66 1228.86C1017.47 1228.5 1012.48 1232.54 1009 1234.46C998.34 1240.33 987.697 1246.93 977.674 1253.82C974.955 1255.68 965.618 1262.89 973.735 1265.05C977.194 1265.97 982.599 1261.97 985.671 1260.63C997.414 1255.51 1011.12 1248.82 1020.99 1240.61C1023.91 1238.18 1029.18 1229.51 1021.66 1228.86Z" fill="#014DFF"/>
<path d="M1025.66 1232.26V1234.92H1026.32L1025.66 1232.26Z" fill="#8DB0FF"/>
<path d="M446.518 1232.92V1234.92H447.184L446.518 1232.92Z" fill="#C6D7FF"/>
<path d="M1145.62 1237.59V1239.59H1146.28L1145.62 1237.59Z" fill="#5286FF"/>
<path d="M446.518 1239.59V1241.59H447.184L446.518 1239.59Z" fill="#C6D7FF"/>
<path d="M1145.62 1239.59V1241.59H1146.28L1145.62 1239.59ZM1218.93 1239.59V1241.59H1219.59L1218.93 1239.59Z" fill="#8DB0FF"/>
<path d="M446.518 1241.59V1243.59H447.184L446.518 1241.59Z" fill="#8DB0FF"/>
<path d="M455.182 1241.59C455.182 1253.11 462.874 1258.75 471.176 1265.86C473.927 1268.22 477.355 1272.32 481.173 1272.72C484.231 1273.04 486.918 1270.64 489.17 1268.91C482.497 1259.44 466.721 1244.36 455.182 1241.59Z" fill="#014DFF"/>
<path d="M1145.62 1241.59V1243.59H1146.28L1145.62 1241.59Z" fill="#C6D7FF"/>
<path d="M1218.93 1241.59V1243.59H1219.59L1218.93 1241.59Z" fill="#5286FF"/>
<path d="M454.515 1243.59V1246.92H455.182L454.515 1243.59Z" fill="#5286FF"/>
<path d="M1144.95 1245.58V1248.92H1145.62L1144.95 1245.58Z" fill="#5286FF"/>
<path d="M447.184 1246.92V1248.92H447.851L447.184 1246.92Z" fill="#C6D7FF"/>
<path d="M982.339 1272.24C985.478 1278.23 993.482 1274.71 998.334 1272.94C1008.9 1269.08 1037.04 1262.35 1031.66 1247.58C1014.73 1252.22 996.895 1262.61 982.339 1272.24Z" fill="#014DFF"/>
<path d="M1218.26 1247.58V1254.25H1218.93L1218.26 1247.58Z" fill="#C6D7FF"/>
<path d="M447.184 1248.92V1250.92H447.851L447.184 1248.92Z" fill="#8DB0FF"/>
<path d="M1144.95 1248.92V1265.58H1145.62L1144.95 1248.92Z" fill="#8DB0FF"/>
<path d="M447.184 1250.92V1252.92H447.851L447.184 1250.92Z" fill="#5286FF"/>
<path d="M1041.65 1252.25V1254.25H1042.32L1041.65 1252.25Z" fill="#C6D7FF"/>
<path d="M447.851 1254.91V1256.91H448.517L447.851 1254.91Z" fill="#C6D7FF"/>
<path d="M447.851 1256.91V1259.58H448.517L447.851 1256.91Z" fill="#8DB0FF"/>
<path d="M1218.93 1258.91V1261.58H1219.59L1218.93 1258.91ZM447.851 1259.58V1261.58H448.517L447.851 1259.58Z" fill="#5286FF"/>
<path d="M1041.65 1261.58V1264.91H1042.32L1041.65 1261.58Z" fill="#C6D7FF"/>
<path d="M1218.93 1261.58V1263.58H1219.59L1218.93 1261.58Z" fill="#8DB0FF"/>
<path d="M455.848 1262.91V1263.58L457.847 1264.25L455.848 1262.91Z" fill="#C6D7FF"/>
<path d="M456.515 1263.58C456.529 1268.88 457.632 1281.06 464.522 1282.25C467.279 1282.73 470.909 1280.23 473.176 1278.91L456.515 1263.58Z" fill="#014DFF"/>
<path d="M1218.93 1263.58V1265.58H1219.59L1218.93 1263.58ZM448.517 1264.25V1266.91H449.184L448.517 1264.25Z" fill="#C6D7FF"/>
<path d="M455.848 1264.25V1266.24H456.515L455.848 1264.25Z" fill="#5286FF"/>
<path d="M1041.65 1264.91V1267.58H1042.32L1041.65 1264.91Z" fill="#8DB0FF"/>
<path d="M1144.95 1265.58V1269.58H1145.62L1144.95 1265.58Z" fill="#5286FF"/>
<path d="M448.517 1266.91V1269.58H449.184L448.517 1266.91Z" fill="#8DB0FF"/>
<path d="M1041.65 1267.58V1270.24H1042.32L1041.65 1267.58Z" fill="#5286FF"/>
<path d="M448.517 1269.58V1271.58H449.184L448.517 1269.58Z" fill="#5286FF"/>
<path d="M1040.99 1272.24V1274.91H1041.65L1040.99 1272.24Z" fill="#C6D7FF"/>
<path d="M997.667 1282.24C1004.73 1293.92 1023.7 1282.34 1034.32 1280.91C1030.49 1265.41 1007.76 1278.1 997.667 1282.24Z" fill="#014DFF"/>
<path d="M1145.62 1272.91V1274.91H1146.28L1145.62 1272.91Z" fill="#C6D7FF"/>
<path d="M1040.99 1274.91V1278.91H1041.65L1040.99 1274.91ZM1145.62 1274.91V1276.91H1146.28L1145.62 1274.91Z" fill="#8DB0FF"/>
<path d="M985.671 1275.57V1276.24H989.004L985.671 1275.57Z" fill="#8DB0FF"/>
<path d="M1145.62 1276.91V1278.91H1146.28L1145.62 1276.91Z" fill="#5286FF"/>
<path d="M1040.99 1278.91V1286.24H1041.65L1040.99 1278.91Z" fill="#5286FF"/>
<path d="M452.516 1286.9V1288.9H453.182L452.516 1286.9Z" fill="#C6D7FF"/>
<path d="M1003.67 1288.24V1288.9H1005.66L1003.67 1288.24Z" fill="#C6D7FF"/>
<path d="M1015 1294.9C1025.07 1300.87 1028.88 1301.05 1033.66 1289.57C1028.03 1290.33 1019.65 1291.58 1015 1294.9Z" fill="#014DFF"/>
<path d="M437.854 1307.56V1308.9L457.847 1311.56C457.716 1296.87 446.64 1303.07 437.854 1307.56Z" fill="#014DFF"/>
<path d="M457.847 1309.56V1311.56H458.514L457.847 1309.56Z" fill="#5286FF"/>
<path d="M454.515 1311.56V1312.23H457.847L454.515 1311.56Z" fill="#C6D7FF"/>
<path d="M425.858 1316.23V1316.89H433.855L425.858 1316.23Z" fill="#8DB0FF"/>
<path d="M421.859 1320.23C434.309 1323.73 448.15 1330.12 461.18 1330.22C461.144 1317.33 445.713 1317.68 435.188 1316.95C430.584 1316.63 424.123 1315.47 421.859 1320.23Z" fill="#014DFF"/>
<path d="M1024.99 1340.89L1047.65 1330.89C1040.69 1316.26 1027.34 1331 1024.99 1340.89Z" fill="#014DFF"/>
<path d="M461.18 1326.89V1329.56H461.846L461.18 1326.89Z" fill="#8DB0FF"/>
<path d="M419.86 1329.56V1330.22H423.859L419.86 1329.56Z" fill="#C6D7FF"/>
<path d="M463.845 1346.88C463.696 1340.71 459.944 1338.99 454.515 1337.37C443.961 1334.22 430.277 1329.22 419.194 1330.34C416.713 1330.58 408.151 1333.04 411.628 1337.09C413.61 1339.39 419.041 1339.81 421.859 1340.45C424.291 1341.01 426.738 1341.59 429.19 1342.05C433.837 1342.91 438.521 1343.62 443.186 1344.38C449.958 1345.49 456.977 1346.86 463.845 1346.88Z" fill="#014DFF"/>
<path d="M458.514 1330.22V1330.89H460.513L458.514 1330.22Z" fill="#8DB0FF"/>
<path d="M469.844 1337.55V1339.55H470.51L469.844 1337.55Z" fill="#8DB0FF"/>
<path d="M1052.98 1338.22V1338.89H1055.65L1052.98 1338.22Z" fill="#5286FF"/>
<path d="M1018.99 1358.21C1032.66 1357.62 1050.5 1352.41 1062.98 1346.88C1061.47 1343.96 1059.02 1340.11 1055.64 1339.17C1051.98 1338.17 1048.24 1340.26 1044.98 1341.65C1036.76 1345.18 1021.52 1348.54 1018.99 1358.21Z" fill="#014DFF"/>
<path d="M1024.33 1340.22V1341.55H1025.66L1024.33 1340.22Z" fill="#8DB0FF"/>
<path d="M470.51 1342.89V1346.22H471.176L470.51 1342.89Z" fill="#5286FF"/>
<path d="M470.51 1346.22V1350.22H471.176L470.51 1346.22Z" fill="#8DB0FF"/>
<path d="M406.531 1346.88V1347.55H411.196L406.531 1346.88Z" fill="#8DB0FF"/>
<path d="M459.847 1346.88V1347.55H463.179L459.847 1346.88Z" fill="#C6D7FF"/>
<path d="M407.026 1348.24C402.144 1352.22 413.154 1354.78 415.195 1355.3C426.372 1358.13 437.811 1360.48 449.184 1362.38C452.3 1362.9 458.694 1365.07 461.274 1362.39C465.99 1357.49 457.908 1354.8 454.515 1354.08C443.072 1351.68 431.425 1350.28 419.86 1348.6C416.789 1348.16 409.683 1346.07 407.026 1348.24Z" fill="#014DFF"/>
<path d="M470.51 1350.22V1353.55H471.176L470.51 1350.22Z" fill="#5286FF"/>
<path d="M396.535 1351.55V1353.55H397.201L396.535 1351.55Z" fill="#C6D7FF"/>
<path d="M1015 1374.87C1033.28 1374.87 1055.09 1372.63 1072.31 1366.21C1071.92 1363.56 1071.28 1359.12 1068.79 1357.57C1065.95 1355.79 1060.67 1357.6 1057.65 1358.21C1047.86 1360.21 1038.01 1362.37 1028.32 1364.81C1022.39 1366.3 1015.63 1367.9 1015 1374.87Z" fill="#014DFF"/>
<path d="M396.535 1357.55V1359.55H397.201L396.535 1357.55Z" fill="#C6D7FF"/>
<path d="M462.513 1357.55V1359.55H463.179L462.513 1357.55Z" fill="#8DB0FF"/>
<path d="M407.198 1363.55C407.75 1376.39 431.754 1376.79 441.853 1378.48C445.328 1379.07 451.05 1380.96 454.445 1379.69C457.386 1378.58 458.729 1374.36 455.749 1372.58C451.57 1370.08 445.24 1369.36 440.52 1368.35C436.103 1367.41 431.644 1366.58 427.191 1365.84C420.658 1364.74 413.825 1363.6 407.198 1363.55Z" fill="#014DFF"/>
<path d="M411.863 1363.55V1364.21H413.862L411.863 1363.55Z" fill="#5286FF"/>
<path d="M455.848 1363.55V1364.21H459.847L455.848 1363.55Z" fill="#C6D7FF"/>
<path d="M1007 1368.88V1372.21H1007.66L1007 1368.88Z" fill="#5286FF"/>
<path d="M1007 1372.21V1376.87H1007.66L1007 1372.21Z" fill="#8DB0FF"/>
<path d="M457.181 1372.88L457.847 1374.87H458.514L457.181 1372.88Z" fill="#5286FF"/>
<path d="M1014.33 1372.88V1374.87H1015L1014.33 1372.88Z" fill="#C6D7FF"/>
<path d="M1024.33 1374.21V1374.87H1026.32L1024.33 1374.21Z" fill="#5286FF"/>
<path d="M1026.32 1374.21V1374.87H1028.32L1026.32 1374.21Z" fill="#8DB0FF"/>
<path d="M1015 1374.88V1375.54H1018.99L1015 1374.88Z" fill="#8DB0FF"/>
<path d="M1018.99 1374.88V1375.54H1021.66L1018.99 1374.88Z" fill="#C6D7FF"/>
<path d="M1007 1376.87V1381.54H1007.66L1007 1376.87Z" fill="#5286FF"/>
<path d="M1061.65 1377.54V1378.21H1063.65L1061.65 1377.54Z" fill="#C6D7FF"/>
<path d="M1063.65 1377.54V1378.21H1066.31L1063.65 1377.54Z" fill="#8DB0FF"/>
<path d="M1066.31 1377.54V1378.21H1069.64L1066.31 1377.54Z" fill="#5286FF"/>
<path d="M1069.64 1377.82C1056.18 1379.57 1042.51 1380.69 1028.99 1382.31C1025.95 1382.67 1017.12 1382.47 1016.16 1386.29C1014.58 1392.61 1026.84 1390.22 1029.66 1390.2C1041.03 1390.15 1052.37 1389.32 1063.65 1387.82C1067.02 1387.37 1072.52 1387.91 1075.43 1385.99C1080.78 1382.46 1073.64 1377.31 1069.64 1377.82Z" fill="#014DFF"/>
<path d="M414.528 1381.54V1382.21H417.194L414.528 1381.54Z" fill="#8DB0FF"/>
<path d="M413.862 1382.21C417.255 1393.66 444.37 1401.38 450.517 1389.54C440.29 1384.4 425.232 1382.21 413.862 1382.21Z" fill="#014DFF"/>
<path d="M1086.3 1384.87V1386.87H1086.97L1086.3 1384.87Z" fill="#8DB0FF"/>
<path d="M1086.3 1386.87V1391.54H1086.97L1086.3 1386.87Z" fill="#C6D7FF"/>
<path d="M1064.31 1387.54V1388.2H1066.31L1064.31 1387.54Z" fill="#8DB0FF"/>
<path d="M1058.31 1388.2V1388.87H1060.31L1058.31 1388.2Z" fill="#8DB0FF"/>
<path d="M1051.65 1388.87V1389.54H1053.65L1051.65 1388.87Z" fill="#8DB0FF"/>
<path d="M1053.65 1388.87V1389.54H1055.65L1053.65 1388.87Z" fill="#C6D7FF"/>
<path d="M1041.65 1389.54V1390.2H1044.32L1041.65 1389.54Z" fill="#5286FF"/>
<path d="M1044.32 1389.54V1390.2H1046.32L1044.32 1389.54Z" fill="#8DB0FF"/>
<path d="M1046.32 1389.54V1390.2H1048.32L1046.32 1389.54Z" fill="#C6D7FF"/>
<path d="M1024.33 1390.2V1390.87H1030.32L1024.33 1390.2Z" fill="#5286FF"/>
<path d="M1030.32 1390.2V1390.87H1035.65L1030.32 1390.2Z" fill="#8DB0FF"/>
<path d="M1035.65 1390.2V1390.87H1038.99L1035.65 1390.2Z" fill="#C6D7FF"/>
<path d="M1086.3 1391.54V1394.2H1086.97L1086.3 1391.54Z" fill="#8DB0FF"/>
<path d="M1061.65 1396.2V1396.87H1064.98L1061.65 1396.2Z" fill="#C6D7FF"/>
<path d="M1044.32 1396.87V1397.53H1048.98L1044.32 1396.87Z" fill="#C6D7FF"/>
<path d="M1048.98 1396.87V1397.53H1052.32L1048.98 1396.87Z" fill="#8DB0FF"/>
<path d="M1052.32 1396.87V1397.53H1056.31L1052.32 1396.87Z" fill="#5286FF"/>
<path d="M1019.66 1399.53C1022.79 1405.42 1030.44 1405.3 1036.32 1406.63C1049.24 1409.55 1074.04 1417.21 1075.64 1397.53L1019.66 1399.53Z" fill="#014DFF"/>
<path d="M1069.64 1396.87V1397.53H1071.64L1069.64 1396.87Z" fill="#5286FF"/>
<path d="M1030.99 1397.53V1398.2H1032.99L1030.99 1397.53Z" fill="#C6D7FF"/>
<path d="M1032.99 1397.53V1398.2H1036.32L1032.99 1397.53Z" fill="#8DB0FF"/>
<path d="M1036.32 1397.53V1398.2H1039.65L1036.32 1397.53Z" fill="#5286FF"/>
<path d="M1024.99 1398.2V1398.87H1026.99L1024.99 1398.2Z" fill="#8DB0FF"/>
<path d="M424.525 1400.2C427.713 1407.78 436.043 1415.58 439.187 1403.53L424.525 1400.2Z" fill="#014DFF"/>
<path d="M1055.65 1410.2V1410.86H1058.31L1055.65 1410.2Z" fill="#8DB0FF"/>
<path d="M1058.31 1410.2V1410.86H1064.31L1058.31 1410.2Z" fill="#5286FF"/>
<path d="M1064.31 1410.2V1410.86H1066.31L1064.31 1410.2Z" fill="#8DB0FF"/>
<path d="M1026.99 1412.86V1413.53H1028.99L1026.99 1412.86Z" fill="#8DB0FF"/>
<path d="M1026.99 1413.53C1033.12 1427.54 1053.13 1424.55 1065.64 1427.52L1066.98 1421.53C1055.16 1417.52 1039.47 1413.79 1026.99 1413.53Z" fill="#014DFF"/>
<path d="M1062.98 1426.86V1427.52H1064.98L1062.98 1426.86Z" fill="#5286FF"/>
<path d="M1037.65 1430.86V1431.52H1039.65L1037.65 1430.86Z" fill="#8DB0FF"/>
<path d="M419.86 1446.18L443.852 1439.52C442.432 1437.25 440.368 1433.36 437.74 1432.35C431.797 1430.06 422.604 1442.27 419.86 1446.18Z" fill="#014DFF"/>
<path d="M1038.32 1431.52L1048.98 1445.52L1058.31 1436.19L1038.32 1431.52Z" fill="#014DFF"/>
<path d="M419.193 1445.52V1446.85H420.526L419.193 1445.52Z" fill="#C6D7FF"/>
<path d="M446.508 1446.54C438.338 1447.96 429.867 1450.9 421.859 1453.13C419.765 1453.72 415.134 1454.38 415.505 1457.45C415.889 1460.62 421.696 1460.17 423.859 1459.89C431.758 1458.89 444.138 1459.06 450.97 1454.57C454.8 1452.06 450.256 1445.89 446.508 1446.54Z" fill="#014DFF"/>
<path d="M454.515 1461.51V1462.18H457.181L454.515 1461.51Z" fill="#C6D7FF"/>
<path d="M410.53 1479.51C417.237 1479.45 423.967 1477.49 430.523 1476.17C434.976 1475.28 439.403 1474.28 443.852 1473.38C448.708 1472.39 455.37 1472.12 459.745 1469.74C463.364 1467.77 460.09 1463.11 457.171 1462.39C453.566 1461.51 448.736 1463.2 445.185 1463.91C435.582 1465.84 424.978 1468.16 415.862 1471.78C412.245 1473.21 410.735 1475.75 410.53 1479.51Z" fill="#014DFF"/>
<path d="M1031.66 1476.17C1037.62 1477.28 1045.8 1477.91 1051.65 1476.17L1048.32 1466.84C1042.05 1467.77 1035.54 1471.12 1031.66 1476.17Z" fill="#014DFF"/>
<path d="M1030.99 1475.51V1476.17L1033.66 1476.84V1476.17L1030.99 1475.51Z" fill="#5286FF"/>
<path d="M1034.99 1476.84V1477.51H1036.99L1034.99 1476.84Z" fill="#C6D7FF"/>
<path d="M1036.99 1476.84V1477.51H1040.32L1036.99 1476.84Z" fill="#8DB0FF"/>
<path d="M1040.32 1476.84V1477.51H1048.98L1040.32 1476.84Z" fill="#5286FF"/>
<path d="M465.845 1477.51C458.993 1477.8 451.862 1479.23 445.185 1480.76L431.189 1483.94C426.043 1485.12 420.589 1486.46 415.901 1488.96C413.764 1490.1 412.08 1492.96 414.74 1494.71C417.975 1496.85 425.598 1494.26 429.19 1493.67C438.333 1492.17 447.519 1490.66 456.514 1488.42C459.448 1487.69 464.185 1487.35 466.082 1484.68C467.55 1482.63 466.302 1479.73 465.845 1477.51Z" fill="#014DFF"/>
<path d="M409.863 1478.17L413.196 1480.17V1479.51L409.863 1478.17Z" fill="#8DB0FF"/>
<path d="M1015.66 1490.17C1020.75 1491.82 1025.76 1493.3 1030.99 1494.45C1034.54 1495.24 1038.07 1496.15 1041.65 1496.78C1044.95 1497.35 1051.02 1499.09 1054.16 1497.67C1058.39 1495.75 1055.59 1489.34 1052.92 1487.42C1049.76 1485.17 1045.94 1485.69 1042.32 1485.44C1033.86 1484.87 1020.73 1481.2 1015.66 1490.17Z" fill="#014DFF"/>
<path d="M1027.66 1484.17V1484.84H1030.99L1027.66 1484.17Z" fill="#5286FF"/>
<path d="M1030.99 1484.17V1484.84H1034.32L1030.99 1484.17Z" fill="#8DB0FF"/>
<path d="M1034.32 1484.17V1484.84H1036.99L1034.32 1484.17Z" fill="#C6D7FF"/>
<path d="M1039.65 1484.84V1485.5H1042.32L1039.65 1484.84Z" fill="#5286FF"/>
<path d="M1042.32 1484.84V1485.5H1044.99L1042.32 1484.84Z" fill="#8DB0FF"/>
<path d="M1044.98 1484.84V1485.5H1047.65L1044.98 1484.84Z" fill="#C6D7FF"/>
<path d="M475.841 1489.5V1498.83H476.508L475.841 1489.5Z" fill="#5286FF"/>
<path d="M412.529 1490.84V1492.84H413.196L412.529 1490.84Z" fill="#5286FF"/>
<path d="M466.511 1493.5V1494.17H468.511L466.511 1493.5Z" fill="#8DB0FF"/>
<path d="M421.193 1504.83C422.726 1510.12 427.581 1508.49 431.856 1507.77C441.897 1506.09 457.758 1506.18 466.412 1500.55C468.414 1499.25 469.511 1495.13 466.359 1494.44C464.024 1493.92 460.834 1495.16 458.514 1495.55C456.06 1495.97 453.623 1496.48 451.183 1496.97C446.95 1497.81 442.712 1498.71 438.52 1499.75C432.693 1501.19 426.649 1502.28 421.193 1504.83Z" fill="#014DFF"/>
<path d="M1046.32 1497.5V1498.17H1048.32L1046.32 1497.5Z" fill="#8DB0FF"/>
<path d="M1048.32 1497.5V1498.17H1050.32L1048.32 1497.5Z" fill="#5286FF"/>
<path d="M468.511 1498.17V1500.17H469.177L468.511 1498.17Z" fill="#C6D7FF"/>
<path d="M1006.33 1501.5C1012.83 1503.7 1019.17 1506.35 1025.66 1508.6C1030.1 1510.14 1034.52 1511.78 1038.99 1513.28C1044.06 1514.97 1049.5 1517.26 1054.97 1516.79C1058.94 1516.45 1059 1512.16 1056.21 1509.96C1048.09 1503.55 1030.96 1502.16 1020.99 1500.17C1016.76 1499.32 1007.64 1495.5 1006.33 1501.5Z" fill="#014DFF"/>
<path d="M1066.31 1504.17V1506.16H1066.98L1066.31 1504.17Z" fill="#5286FF"/>
<path d="M1066.31 1506.16V1512.16H1066.98L1066.31 1506.16Z" fill="#8DB0FF"/>
<path d="M423.859 1508.83V1509.5H426.525L423.859 1508.83Z" fill="#C6D7FF"/>
<path d="M1002.33 1508.83V1509.5H1004.33L1002.33 1508.83Z" fill="#C6D7FF"/>
<path d="M463.845 1509.5V1510.16L467.177 1510.83L463.845 1509.5Z" fill="#C6D7FF"/>
<path d="M1001.34 1510.18C996.141 1513.9 1006.66 1518.69 1009 1519.95C1019.03 1525.38 1029.68 1530.18 1040.32 1534.28C1043.93 1535.67 1049.16 1538.23 1052.72 1535.48C1058.06 1531.36 1051.28 1527.04 1047.65 1525.4C1036.67 1520.45 1025.14 1515.83 1013.66 1512.18C1010.68 1511.23 1004.26 1508.1 1001.34 1510.18Z" fill="#014DFF"/>
<path d="M459.18 1510.16V1510.83H461.18L459.18 1510.16Z" fill="#8DB0FF"/>
<path d="M432.522 1516.83C435.073 1525.49 450.632 1522.11 457.181 1520.83C459.497 1520.37 462.492 1520.17 464.3 1518.49C466.335 1516.58 466.306 1512.76 466.511 1510.16C455.271 1510.4 442.998 1512.8 432.522 1516.83Z" fill="#014DFF"/>
<path d="M1058.31 1512.16V1515.49H1058.98L1058.31 1512.16Z" fill="#C6D7FF"/>
<path d="M1066.31 1512.16V1515.49H1066.98L1066.31 1512.16Z" fill="#5286FF"/>
<path d="M1053.65 1516.83V1517.49H1056.98L1053.65 1516.83Z" fill="#5286FF"/>
<path d="M1065.64 1517.49V1519.49H1066.31L1065.64 1517.49Z" fill="#C6D7FF"/>
<path d="M989.004 1520.83V1524.16H989.67L989.004 1520.83Z" fill="#5286FF"/>
<path d="M439.854 1522.16V1522.83H445.185L439.854 1522.16Z" fill="#5286FF"/>
<path d="M445.185 1522.16V1522.83H447.851L445.185 1522.16Z" fill="#8DB0FF"/>
<path d="M997.001 1523.49V1525.49H997.667L997.001 1523.49Z" fill="#5286FF"/>
<path d="M997.667 1523.49C996.928 1528.83 1000.13 1531.3 1004.33 1534.01C1012.37 1539.2 1020.45 1544.65 1028.99 1548.98C1032.16 1550.59 1036.63 1553.42 1040.32 1553.21C1043.61 1553.02 1046.82 1549.36 1044.11 1546.5C1040.63 1542.84 1034.14 1540.55 1029.66 1538.32L1016.99 1531.99C1010.81 1528.9 1004.33 1525.4 997.667 1523.49Z" fill="#014DFF"/>
<path d="M989.004 1525.49V1531.49H989.67L989.004 1525.49Z" fill="#5286FF"/>
<path d="M449.184 1530.16L461.18 1536.15L463.179 1527.49L449.184 1530.16Z" fill="#014DFF"/>
<path d="M1054.98 1530.16V1532.16H1055.65L1054.98 1530.16Z" fill="#C6D7FF"/>
<path d="M987.671 1536.15V1538.82H988.337L987.671 1536.15Z" fill="#5286FF"/>
<path d="M1048.32 1536.82V1537.49H1050.32L1048.32 1536.82Z" fill="#C6D7FF"/>
<path d="M1605.46 1536.82V1538.82H1606.13L1605.46 1536.82Z" fill="#C6D7FF"/>
<path d="M998.334 1540.15C997.161 1545.32 1000.61 1547.3 1004.33 1550.28C1011.52 1556.03 1018.52 1562.61 1026.32 1567.48C1029.86 1555.52 1007.52 1543.98 998.334 1540.15Z" fill="#014DFF"/>
<path d="M989.004 1541.49V1545.48H989.67L989.004 1541.49Z" fill="#5286FF"/>
<path d="M1606.13 1541.49V1543.49H1606.8L1606.13 1541.49Z" fill="#8DB0FF"/>
<path d="M997.001 1542.15V1544.82H997.667L997.001 1542.15Z" fill="#C6D7FF"/>
<path d="M1606.13 1543.49V1545.48H1606.8L1606.13 1543.49Z" fill="#C6D7FF"/>
<path d="M1606.8 1547.48V1550.15H1607.46L1606.8 1547.48Z" fill="#5286FF"/>
<path d="M1606.8 1550.15V1553.48H1607.46L1606.8 1550.15Z" fill="#8DB0FF"/>
<path d="M463.845 1572.14C470.722 1569.5 479.549 1562.78 483.839 1556.81C472.005 1550.09 463.878 1560.35 463.845 1572.14Z" fill="#014DFF"/>
<path d="M991.003 1553.48V1555.48H991.669L991.003 1553.48Z" fill="#5286FF"/>
<path d="M1038.99 1553.48V1554.15H1040.99L1038.99 1553.48Z" fill="#C6D7FF"/>
<path d="M1606.8 1553.48V1571.48H1607.46L1606.8 1553.48Z" fill="#C6D7FF"/>
<path d="M1532.16 1556.15V1558.15H1532.82L1532.16 1556.15Z" fill="#C6D7FF"/>
<path d="M991.669 1556.81V1558.81H992.336L991.669 1556.81Z" fill="#C6D7FF"/>
<path d="M1532.16 1558.15V1560.15H1532.82L1532.16 1558.15Z" fill="#8DB0FF"/>
<path d="M999.667 1559.48V1562.81H1000.33L999.667 1559.48Z" fill="#8DB0FF"/>
<path d="M1000.33 1559.48C1000.42 1568.94 1006.43 1574.34 1015.66 1572.14L1000.33 1559.48Z" fill="#014DFF"/>
<path d="M991.669 1560.15V1562.15H992.336L991.669 1560.15ZM1532.16 1560.15V1564.15H1532.82L1532.16 1560.15Z" fill="#5286FF"/>
<path d="M455.848 1560.81V1563.48H456.515L455.848 1560.81Z" fill="#C6D7FF"/>
<path d="M491.169 1562.15V1562.81H493.835L491.169 1562.15Z" fill="#C6D7FF"/>
<path d="M463.845 1588.14C468.852 1586.69 473.398 1583.47 477.841 1580.81L487.171 1575.21C490.202 1573.39 495.533 1571.3 497.241 1568.03C499.068 1564.53 493.801 1562.58 491.17 1563.09C483.009 1564.67 474.533 1574.04 468.511 1579.29C465.526 1581.89 462.381 1583.91 463.845 1588.14Z" fill="#014DFF"/>
<path d="M992.336 1565.48V1567.48H993.002L992.336 1565.48Z" fill="#8DB0FF"/>
<path d="M463.179 1567.48V1570.14H463.845L463.179 1567.48Z" fill="#C6D7FF"/>
<path d="M992.336 1567.48V1569.48H993.003L992.336 1567.48Z" fill="#5286FF"/>
<path d="M455.182 1568.14V1570.81H455.848L455.182 1568.14Z" fill="#C6D7FF"/>
<path d="M463.179 1570.81V1572.81H463.845L463.179 1570.81Z" fill="#C6D7FF"/>
<path d="M993.002 1570.81V1572.81H993.669L993.002 1570.81Z" fill="#C6D7FF"/>
<path d="M1606.8 1571.48V1574.81H1607.46L1606.8 1571.48Z" fill="#8DB0FF"/>
<path d="M505.832 1572.14V1572.81H507.831L505.832 1572.14Z" fill="#8DB0FF"/>
<path d="M504.499 1573.24C494.5 1576.06 480.01 1586.46 472.625 1593.66C470.749 1595.49 463.835 1606.54 471.206 1606.15C474.605 1605.97 478.603 1602.17 481.173 1600.21C487.682 1595.26 494.112 1590.18 500.5 1585.07C503.249 1582.87 507.512 1580.52 509.296 1577.41C511.233 1574.05 507.214 1572.48 504.499 1573.24Z" fill="#014DFF"/>
<path d="M993.002 1572.81V1574.81H993.669L993.002 1572.81Z" fill="#8DB0FF"/>
<path d="M1007.66 1572.81V1573.48H1012.33L1007.66 1572.81Z" fill="#8DB0FF"/>
<path d="M993.002 1574.81V1577.47H993.669L993.002 1574.81Z" fill="#5286FF"/>
<path d="M1606.8 1574.81V1577.47H1607.46L1606.8 1574.81Z" fill="#5286FF"/>
<path d="M1532.16 1575.47V1578.14H1532.82L1532.16 1575.47Z" fill="#5286FF"/>
<path d="M1532.16 1578.14V1580.81H1532.82L1532.16 1578.14Z" fill="#8DB0FF"/>
<path d="M993.669 1579.47V1581.47H994.335L993.669 1579.47Z" fill="#C6D7FF"/>
<path d="M1606.13 1579.47V1581.47H1606.8L1606.13 1579.47Z" fill="#C6D7FF"/>
<path d="M1606.13 1581.47V1583.47H1606.8L1606.13 1581.47Z" fill="#8DB0FF"/>
<path d="M515.818 1583.31C511.797 1584.33 507.679 1588.28 504.498 1590.8C497.241 1596.55 490.165 1602.45 483.172 1608.52C481.206 1610.22 472.941 1617.86 480.51 1618.43C483.948 1618.69 488.562 1614.12 491.169 1612.21C500.158 1605.6 511.251 1598.84 518.339 1590.14C520.357 1587.66 520.402 1582.15 515.818 1583.31Z" fill="#014DFF"/>
<path d="M454.515 1586.8V1588.8H455.182L454.515 1586.8Z" fill="#5286FF"/>
<path d="M455.182 1590.14V1592.14H455.848L455.182 1590.14Z" fill="#C6D7FF"/>
<path d="M993.002 1590.8V1594.8H993.669L993.002 1590.8ZM1001 1590.8V1592.8H1001.67L1001 1590.8Z" fill="#C6D7FF"/>
<path d="M976.341 1594.14L992.336 1600.8L993.002 1591.47L976.341 1594.14Z" fill="#014DFF"/>
<path d="M1001 1592.8V1594.8H1001.67L1001 1592.8Z" fill="#8DB0FF"/>
<path d="M1001 1594.8V1596.8H1001.67L1001 1594.8Z" fill="#5286FF"/>
<path d="M488.504 1625.46C499.881 1631.5 511.145 1618.59 519.16 1610.79C523.969 1606.1 529.035 1603.06 525.158 1596.13C520.252 1597.59 516.426 1601.52 512.496 1604.67C504.595 1610.98 494.447 1617.19 488.504 1625.46Z" fill="#014DFF"/>
<path d="M962.346 1597.47V1598.13H964.345L962.346 1597.47Z" fill="#C6D7FF"/>
<path d="M959.014 1599.47L989.67 1620.79C989.917 1617.66 991.903 1613.13 990.317 1610.2C988.957 1607.68 985.452 1606.47 983.006 1605.32C976.874 1602.42 965.671 1595.48 959.014 1599.47Z" fill="#014DFF"/>
<path d="M992.336 1598.13V1600.8H993.002L992.336 1598.13Z" fill="#5286FF"/>
<path d="M1000.33 1599.47V1604.8H1001L1000.33 1599.47Z" fill="#C6D7FF"/>
<path d="M527.157 1600.13V1602.13H527.824L527.157 1600.13Z" fill="#C6D7FF"/>
<path d="M467.178 1600.8V1602.8H467.844L467.178 1600.8Z" fill="#5286FF"/>
<path d="M947.684 1602.8V1603.47H949.683L947.684 1602.8Z" fill="#C6D7FF"/>
<path d="M944.352 1604.8C948.704 1615.08 962.573 1624.16 971.01 1631.18C974.462 1634.06 977.868 1637.73 982.339 1638.79C983.566 1636.58 986.565 1633.48 985.565 1630.79C984.299 1627.38 979.714 1624.63 977.008 1622.41C969.15 1615.97 955.268 1600.83 944.352 1604.8Z" fill="#014DFF"/>
<path d="M970.343 1654.12H971.009L975.675 1648.78C969.157 1637.51 955.561 1626.2 945.685 1617.75C943.752 1616.09 936.208 1608.22 933.735 1612.34C931.609 1615.89 938.24 1621.95 940.36 1624.13C950.236 1634.26 959.673 1644.79 970.343 1654.12Z" fill="#014DFF"/>
<path d="M529.823 1611.46C522.768 1617.15 511.059 1623.79 507.164 1632.12C516.123 1634.96 520.774 1630.85 527.147 1624.73C530.871 1621.16 533.736 1615.96 529.823 1611.46Z" fill="#014DFF"/>
<path d="M531.823 1614.79V1618.13H532.489L531.823 1614.79Z" fill="#C6D7FF"/>
<path d="M927.024 1621.46C924.772 1625.75 927.471 1629.53 929.544 1633.46C934.255 1642.38 940.946 1657.34 949.683 1662.79C952.536 1664.56 961.633 1666.09 960.98 1660.11C960.513 1655.75 954.102 1650.04 951.39 1646.78C948.371 1643.15 945.165 1639.69 942.073 1636.12C937.627 1631 932.569 1625.36 927.024 1621.46Z" fill="#014DFF"/>
<path d="M996.334 1626.79V1628.79H997.001L996.334 1626.79Z" fill="#5286FF"/>
<path d="M525.825 1636.12L535.155 1636.79L534.488 1628.79L525.825 1636.12Z" fill="#014DFF"/>
<path d="M511.829 1633.46V1634.12H515.162L511.829 1633.46Z" fill="#C6D7FF"/>
<path d="M919.694 1633.46C915.675 1644.25 923.479 1652.56 929.057 1661.45C932.509 1666.94 934.669 1672.28 941.686 1669.44L921.026 1633.46H919.694Z" fill="#014DFF"/>
<path d="M525.825 1636.12V1636.79H527.824L525.825 1636.12Z" fill="#5286FF"/>
<path d="M529.824 1636.79V1637.45H531.823L529.824 1636.79Z" fill="#C6D7FF"/>
<path d="M531.823 1636.79V1637.45H533.822L531.823 1636.79Z" fill="#8DB0FF"/>
<path d="M559.813 1638.79V1639.45H561.813L559.813 1638.79Z" fill="#8DB0FF"/>
<path d="M556.481 1639.45V1640.12H559.147L556.481 1639.45Z" fill="#C6D7FF"/>
<path d="M573.809 1640.79V1641.45H576.474L573.809 1640.79Z" fill="#8DB0FF"/>
<path d="M576.475 1640.79V1641.45H583.805L576.475 1640.79Z" fill="#5286FF"/>
<path d="M545.151 1645.45L545.818 1649.45L548.484 1646.12L545.151 1645.45Z" fill="#014DFF"/>
<path d="M546.484 1645.45V1646.12H549.15L546.484 1645.45Z" fill="#5286FF"/>
<path d="M559.147 1646.12V1646.78H561.813L559.147 1646.12Z" fill="#C6D7FF"/>
<path d="M551.816 1670.11H552.482L566.478 1647.45C551.971 1644.76 550.377 1658.72 551.816 1670.11Z" fill="#014DFF"/>
<path d="M564.479 1646.78V1647.45H567.144L564.479 1646.78Z" fill="#5286FF"/>
<path d="M583.139 1650.12C580.896 1649.4 577.633 1647.78 575.264 1648.58C570.067 1650.32 564.525 1663.54 561.685 1668.11C560.298 1670.34 555.205 1675.79 556.588 1678.56C559.361 1684.12 567.986 1672.65 569.503 1670.78C571.578 1668.22 573.547 1665.54 575.345 1662.78C578.041 1658.64 580.818 1654.47 583.139 1650.12Z" fill="#014DFF"/>
<path d="M913.029 1650.78C911.849 1655.34 909.45 1667.9 914.069 1671.32C916.748 1673.3 922.439 1672 925.691 1672.78C923.252 1665.61 918.854 1655.74 913.029 1650.78Z" fill="#014DFF"/>
<path d="M571.143 1696.77C576.42 1692.96 579.276 1686.18 582.685 1680.77C585.048 1677.02 587.368 1673.24 589.668 1669.44C592.202 1665.27 595.668 1660.81 597.144 1656.13C597.987 1653.45 596.038 1651.14 593.135 1651.92C589.106 1653.02 586.493 1658.21 584.437 1661.45C579.249 1669.62 563.274 1687.68 571.143 1696.77Z" fill="#014DFF"/>
<path d="M605.914 1658.27C602.989 1659.4 600.974 1664.3 599.362 1666.78C593.837 1675.28 588.235 1684.21 584.011 1693.44C582.766 1696.15 579.322 1705.13 585.798 1703.86C589.507 1703.13 591.931 1697.67 593.767 1694.77C599.511 1685.7 605.751 1676.04 609.879 1666.11C611.032 1663.34 611.064 1656.29 605.914 1658.27Z" fill="#014DFF"/>
<path d="M911.03 1657.45V1662.78H911.696L911.03 1657.45Z" fill="#C6D7FF"/>
<path d="M611.13 1660.78V1662.78H611.796L611.13 1660.78Z" fill="#8DB0FF"/>
<path d="M550.483 1661.45V1665.44H551.15L550.483 1661.45Z" fill="#C6D7FF"/>
<path d="M843.719 1664.11V1664.78H845.718L843.719 1664.11Z" fill="#5286FF"/>
<path d="M845.718 1664.11V1664.78H849.717L845.718 1664.11Z" fill="#8DB0FF"/>
<path d="M849.717 1664.11V1664.78H851.716L849.717 1664.11Z" fill="#C6D7FF"/>
<path d="M617.794 1666.78C615.077 1671.68 612.258 1676.51 609.591 1681.44L604.259 1691.44C603.175 1693.44 601.972 1695.37 600.989 1697.43C599.541 1700.47 597.891 1711.24 604.205 1705.22C611.076 1698.67 615.521 1685.28 619.621 1676.77C621.505 1672.87 623.08 1668.31 617.794 1666.78Z" fill="#014DFF"/>
<path d="M551.149 1667.44V1669.44H551.816L551.149 1667.44Z" fill="#5286FF"/>
<path d="M621.793 1668.78V1671.44H622.459L621.793 1668.78Z" fill="#C6D7FF"/>
<path d="M551.149 1669.44V1670.78H552.482L551.149 1669.44Z" fill="#8DB0FF"/>
<path d="M846.385 1672.78C850.064 1684.07 854.522 1695.12 859.054 1706.1C860.2 1708.87 862.133 1715.73 866.305 1714.78C871.25 1713.66 867.458 1706.06 866.371 1703.43C861.793 1692.39 856.628 1681.65 850.383 1671.44L846.385 1672.78Z" fill="#014DFF"/>
<path d="M915.028 1672.11V1672.78H919.693L915.028 1672.11Z" fill="#8DB0FF"/>
<path d="M919.693 1672.11V1672.78H925.025L919.693 1672.11Z" fill="#5286FF"/>
<path d="M861.046 1673.44C862.426 1677.52 864.119 1681.53 865.918 1685.44C867.164 1688.15 868.511 1690.84 869.997 1693.44C871.43 1695.93 873.162 1700.01 875.828 1701.4C879.833 1703.48 882.426 1697.94 882.273 1694.77C881.813 1685.02 870.45 1673.87 861.046 1673.44Z" fill="#014DFF"/>
<path d="M834.489 1674.62C830.617 1676.19 834.069 1683.99 834.862 1686.77C837.748 1696.93 840.02 1707.64 844.019 1717.43C845.278 1720.51 847.978 1726.58 852.283 1724.74C855.982 1723.15 854.175 1716.91 853.269 1714.1C849.897 1703.59 846.151 1693.14 842.353 1682.77C841.24 1679.74 839.027 1672.78 834.489 1674.62Z" fill="#014DFF"/>
<path d="M880.373 1676.11V1677.44L881.706 1676.11H880.373Z" fill="#8DB0FF"/>
<path d="M881.04 1676.77C884.052 1683.14 890.75 1689.55 892.369 1678.77L881.04 1676.77Z" fill="#014DFF"/>
<path d="M627.124 1678.11V1678.77H629.123L627.124 1678.11Z" fill="#8DB0FF"/>
<path d="M627.791 1678.11C625.415 1681.45 623.812 1685.21 621.793 1688.77C620.552 1690.96 619.418 1693.19 618.296 1695.43C615.736 1700.57 613.797 1711.12 623.116 1704.95C630.932 1699.77 635.623 1684.58 627.791 1678.11Z" fill="#014DFF"/>
<path d="M824.392 1678.77C818.787 1680.37 819.593 1685.41 820.526 1690.1C822.639 1700.75 823.399 1717.64 829.87 1726.6C831.269 1728.54 836.094 1730.57 837.207 1727.27C838.074 1724.7 836.434 1720.61 835.808 1718.09C835.188 1715.63 834.482 1713.21 833.822 1710.76L830.29 1697.43C828.577 1691.11 826.418 1685 824.392 1678.77Z" fill="#014DFF"/>
<path d="M1350.22 1679.44V1680.11H1352.22L1350.22 1679.44Z" fill="#8DB0FF"/>
<path d="M923.026 1680.11V1680.77H926.358L923.026 1680.11Z" fill="#C6D7FF"/>
<path d="M926.358 1680.11V1680.77H934.355L926.358 1680.11Z" fill="#8DB0FF"/>
<path d="M1355.55 1680.11V1680.77H1357.55L1355.55 1680.11Z" fill="#C6D7FF"/>
<path d="M1357.55 1680.11V1680.77H1359.55L1357.55 1680.11Z" fill="#8DB0FF"/>
<path d="M1359.55 1680.11V1680.77H1361.55L1359.55 1680.11Z" fill="#5286FF"/>
<path d="M1410.2 1680.11V1680.77H1412.2L1410.2 1680.11Z" fill="#8DB0FF"/>
<path d="M910.363 1680.77V1681.44H915.695L910.363 1680.77ZM917.694 1680.77V1681.44H919.693L917.694 1680.77Z" fill="#5286FF"/>
<path d="M1364.21 1680.77V1681.44H1366.88L1364.21 1680.77Z" fill="#C6D7FF"/>
<path d="M1366.88 1680.77V1681.44H1370.21L1366.88 1680.77Z" fill="#8DB0FF"/>
<path d="M1370.21 1680.77V1681.44H1374.21L1370.21 1680.77ZM1398.87 1680.77V1681.44H1402.2L1398.87 1680.77Z" fill="#5286FF"/>
<path d="M1402.2 1680.77V1681.44H1404.86L1402.2 1680.77Z" fill="#8DB0FF"/>
<path d="M1404.87 1680.77V1681.44H1406.86L1404.87 1680.77Z" fill="#C6D7FF"/>
<path d="M1380.21 1681.44V1682.11H1394.2L1380.21 1681.44Z" fill="#C6D7FF"/>
<path d="M707.098 1682.11V1682.77H709.097L707.098 1682.11Z" fill="#8DB0FF"/>
<path d="M709.097 1682.11V1682.77H717.095L709.097 1682.11Z" fill="#C6D7FF"/>
<path d="M717.094 1682.11V1682.77H719.094L717.094 1682.11Z" fill="#8DB0FF"/>
<path d="M819.061 1682.77V1684.77H819.727L819.061 1682.77Z" fill="#8DB0FF"/>
<path d="M632.456 1685.44V1687.44H633.122L632.456 1685.44Z" fill="#5286FF"/>
<path d="M812.396 1688.1C801.686 1691.53 808.084 1707.67 809.03 1716.09C809.344 1718.85 809.01 1724.81 811.056 1726.9C812.589 1728.48 814.695 1726.79 815.528 1725.35C817.488 1721.96 817.268 1717.16 816.781 1713.43C816.341 1710.1 816.061 1706.76 815.548 1703.43C814.748 1698.27 813.089 1693.26 812.396 1688.1Z" fill="#014DFF"/>
<path d="M705.098 1688.77V1689.44L707.764 1690.1V1689.44L705.098 1688.77Z" fill="#8DB0FF"/>
<path d="M712.429 1741.42C714.715 1741.37 717.587 1741.43 718.974 1739.23C720.56 1736.73 720.227 1732.3 720.54 1729.42C721.46 1720.79 721.406 1712.11 721.786 1703.43C721.953 1699.54 723.745 1693.69 720.7 1690.4C718.607 1688.13 716.355 1689.71 715.568 1692.12C714.022 1696.85 714.162 1702.49 713.822 1707.43C713.502 1712.1 713.276 1716.75 713.069 1721.43C712.776 1728.11 712.429 1734.7 712.429 1741.42Z" fill="#014DFF"/>
<path d="M702.433 1740.09L706.491 1707.43L707.098 1689.44C701.08 1690.12 700.58 1697.19 699.347 1702.1C696.888 1711.94 685.845 1738.73 702.433 1740.09Z" fill="#014DFF"/>
<path d="M691.77 1691.44V1692.1H693.769L691.77 1691.44Z" fill="#5286FF"/>
<path d="M693.769 1691.44V1695.43H694.435L693.769 1691.44Z" fill="#C6D7FF"/>
<path d="M683.772 1732.09C688.437 1721.11 693.669 1704.03 693.769 1692.1C682.299 1692.21 681.426 1711.03 680.407 1720.09C679.854 1725.01 678.181 1730.07 683.772 1732.09Z" fill="#014DFF"/>
<path d="M638.454 1692.77L634.455 1702.77L643.119 1700.77L638.454 1692.77Z" fill="#014DFF"/>
<path d="M729.09 1738.75L737.088 1737.42C737.181 1726.07 739.02 1714.79 737.468 1703.43C737.074 1700.5 736.221 1692.58 731.303 1693.98C728.61 1694.74 729.097 1702.58 729.09 1704.76V1738.75Z" fill="#014DFF"/>
<path d="M882.373 1694.1V1696.1H883.039L882.373 1694.1Z" fill="#8DB0FF"/>
<path d="M707.098 1694.77V1697.43H707.764L707.098 1694.77Z" fill="#5286FF"/>
<path d="M671.776 1722.09L676.441 1696.77C664.247 1700.29 661.503 1714.85 671.776 1722.09Z" fill="#014DFF"/>
<path d="M676.441 1696.77V1699.43H677.108L676.441 1696.77Z" fill="#5286FF"/>
<path d="M707.098 1697.43V1700.1H707.764L707.098 1697.43Z" fill="#8DB0FF"/>
<path d="M729.09 1697.43V1699.43H729.757L729.09 1697.43Z" fill="#5286FF"/>
<path d="M795.068 1702.1L799.733 1699.43V1698.77L795.068 1702.1Z" fill="#5286FF"/>
<path d="M713.762 1698.77V1700.77H714.429L713.762 1698.77Z" fill="#C6D7FF"/>
<path d="M798.4 1698.77C789.577 1707.3 791.356 1720.06 803.066 1725.42C801.279 1717.94 803.066 1704.9 798.4 1698.77Z" fill="#014DFF"/>
<path d="M707.097 1700.1V1702.1H707.764L707.097 1700.1Z" fill="#C6D7FF"/>
<path d="M721.759 1700.1V1704.1H722.426L721.759 1700.1ZM744.418 1700.1V1707.43H745.085L744.418 1700.1Z" fill="#5286FF"/>
<path d="M745.085 1700.1L746.418 1731.42C749.057 1730.11 753.002 1728.12 754.369 1725.36C755.508 1723.07 754.215 1719.77 753.749 1717.43C752.416 1710.77 751.983 1703.16 745.085 1700.1Z" fill="#014DFF"/>
<path d="M713.762 1700.77V1703.43H714.429L713.762 1700.77Z" fill="#8DB0FF"/>
<path d="M659.114 1702.77L656.448 1704.1L657.781 1707.43L659.114 1702.77Z" fill="#014DFF"/>
<path d="M614.462 1703.43V1705.43H615.128L614.462 1703.43Z" fill="#8DB0FF"/>
<path d="M713.762 1703.43V1705.43H714.429L713.762 1703.43Z" fill="#5286FF"/>
<path d="M728.424 1703.43V1714.76H729.09L728.424 1703.43Z" fill="#C6D7FF"/>
<path d="M583.806 1704.1V1704.77H586.471L583.806 1704.1Z" fill="#8DB0FF"/>
<path d="M721.759 1704.1V1708.1H722.426L721.759 1704.1Z" fill="#8DB0FF"/>
<path d="M706.431 1704.77V1706.76H707.098L706.431 1704.77Z" fill="#5286FF"/>
<path d="M737.754 1704.77V1706.76H738.42L737.754 1704.77Z" fill="#C6D7FF"/>
<path d="M599.8 1706.76V1707.43H602.466L599.8 1706.76Z" fill="#5286FF"/>
<path d="M706.431 1706.76V1709.43H707.098L706.431 1706.76ZM737.754 1706.76V1709.43H738.42L737.754 1706.76Z" fill="#8DB0FF"/>
<path d="M744.419 1707.43V1713.43H745.085L744.419 1707.43Z" fill="#8DB0FF"/>
<path d="M713.096 1708.1V1710.1H713.762L713.096 1708.1ZM721.759 1708.1V1711.43H722.426L721.759 1708.1Z" fill="#C6D7FF"/>
<path d="M706.431 1709.43V1711.43H707.098L706.431 1709.43Z" fill="#C6D7FF"/>
<path d="M737.754 1709.43V1715.43H738.42L737.754 1709.43Z" fill="#5286FF"/>
<path d="M759.747 1709.43L762.412 1720.76L768.41 1716.76L759.747 1709.43Z" fill="#014DFF"/>
<path d="M713.096 1710.1V1712.76H713.762L713.096 1710.1Z" fill="#8DB0FF"/>
<path d="M664.445 1711.43V1714.1H665.111L664.445 1711.43Z" fill="#5286FF"/>
<path d="M816.395 1711.43V1713.43H817.061L816.395 1711.43Z" fill="#5286FF"/>
<path d="M783.739 1712.1L781.739 1715.43H782.406L783.739 1712.1Z" fill="#5286FF"/>
<path d="M784.405 1712.1L782.406 1715.43C784.245 1714.9 784.952 1713.98 784.405 1712.1Z" fill="#014DFF"/>
<path d="M713.096 1712.76V1714.76H713.762L713.096 1712.76Z" fill="#5286FF"/>
<path d="M705.765 1713.43V1715.43H706.431L705.765 1713.43Z" fill="#5286FF"/>
<path d="M744.418 1713.43V1716.76H745.085L744.418 1713.43Z" fill="#C6D7FF"/>
<path d="M603.799 1714.76V1715.43H610.463L603.799 1714.76Z" fill="#5286FF"/>
<path d="M721.093 1714.76V1718.09H721.759L721.093 1714.76Z" fill="#5286FF"/>
<path d="M728.424 1714.76V1728.76H729.09L728.424 1714.76Z" fill="#8DB0FF"/>
<path d="M817.061 1715.43V1720.09H817.728L817.061 1715.43Z" fill="#C6D7FF"/>
<path d="M705.765 1716.76V1718.76H706.431L705.765 1716.76Z" fill="#C6D7FF"/>
<path d="M712.429 1717.43V1720.09H713.096L712.429 1717.43Z" fill="#C6D7FF"/>
<path d="M721.093 1718.09V1721.43H721.759L721.093 1718.09Z" fill="#8DB0FF"/>
<path d="M737.754 1719.43V1726.09H738.42L737.754 1719.43ZM745.085 1719.43V1721.43H745.751L745.085 1719.43Z" fill="#5286FF"/>
<path d="M854.382 1719.43V1722.76H855.048L854.382 1719.43Z" fill="#5286FF"/>
<path d="M705.098 1720.09V1722.09H705.765L705.098 1720.09Z" fill="#5286FF"/>
<path d="M712.429 1720.09V1722.09H713.096L712.429 1720.09Z" fill="#8DB0FF"/>
<path d="M721.093 1721.43V1724.76H721.759L721.093 1721.43Z" fill="#C6D7FF"/>
<path d="M745.085 1721.43V1723.43H745.751L745.085 1721.43Z" fill="#8DB0FF"/>
<path d="M712.429 1722.09V1724.76H713.096L712.429 1722.09Z" fill="#5286FF"/>
<path d="M745.085 1723.43V1725.42H745.752L745.085 1723.43Z" fill="#C6D7FF"/>
<path d="M679.107 1724.09V1726.09H679.773L679.107 1724.09Z" fill="#C6D7FF"/>
<path d="M693.102 1724.76V1726.76H693.769L693.102 1724.76Z" fill="#C6D7FF"/>
<path d="M679.107 1726.09V1728.09H679.773L679.107 1726.09Z" fill="#8DB0FF"/>
<path d="M737.754 1726.09V1728.76H738.42L737.754 1726.09Z" fill="#8DB0FF"/>
<path d="M693.102 1726.76V1732.09H693.769L693.102 1726.76Z" fill="#8DB0FF"/>
<path d="M745.751 1726.76V1728.76H746.418L745.751 1726.76Z" fill="#5286FF"/>
<path d="M704.432 1727.42V1729.42H705.098L704.432 1727.42Z" fill="#8DB0FF"/>
<path d="M711.763 1727.42V1730.09H712.429L711.763 1727.42Z" fill="#C6D7FF"/>
<path d="M679.107 1728.09V1730.76H679.773L679.107 1728.09Z" fill="#5286FF"/>
<path d="M720.426 1728.76V1730.76H721.093L720.426 1728.76Z" fill="#8DB0FF"/>
<path d="M728.424 1728.76V1736.75H729.09L728.424 1728.76Z" fill="#5286FF"/>
<path d="M737.754 1728.76V1730.76H738.42L737.754 1728.76Z" fill="#C6D7FF"/>
<path d="M711.763 1730.09V1739.42H712.429L711.763 1730.09Z" fill="#8DB0FF"/>
<path d="M693.102 1732.09V1734.09H693.769L693.102 1732.09Z" fill="#C6D7FF"/>
<path d="M737.088 1732.09V1734.09H737.754L737.088 1732.09Z" fill="#5286FF"/>
<path d="M737.087 1734.09V1736.09H737.754L737.087 1734.09Z" fill="#8DB0FF"/>
<path d="M819.727 1735.42V1736.09H821.726L819.727 1735.42Z" fill="#5286FF"/>
<path d="M821.726 1735.42V1736.09H823.725L821.726 1735.42Z" fill="#8DB0FF"/>
<path d="M823.726 1735.42V1736.09H825.725L823.726 1735.42Z" fill="#C6D7FF"/>
<path d="M719.76 1736.09V1738.09H720.427L719.76 1736.09Z" fill="#C6D7FF"/>
<path d="M827.724 1736.09V1736.75H829.723L827.724 1736.09Z" fill="#5286FF"/>
<path d="M829.724 1736.09V1736.75H831.723L829.724 1736.09Z" fill="#8DB0FF"/>
<path d="M831.723 1736.09V1736.75H833.722L831.723 1736.09ZM836.388 1736.09V1736.75H838.387L836.388 1736.09Z" fill="#C6D7FF"/>
<path d="M711.763 1739.42V1741.42H712.429L711.763 1739.42Z" fill="#C6D7FF"/>
<path d="M1334.22 1744.75V1745.42H1336.22L1334.22 1744.75Z" fill="#5286FF"/>
<path d="M1340.22 1745.42V1746.08H1342.22L1340.22 1745.42Z" fill="#5286FF"/>
<path d="M1343.55 1745.42V1746.08H1345.55L1343.55 1745.42Z" fill="#C6D7FF"/>
<path d="M1347.55 1746.08V1746.75H1349.55L1347.55 1746.08Z" fill="#5286FF"/>
<path d="M1349.55 1746.08V1746.75H1351.55L1349.55 1746.08Z" fill="#8DB0FF"/>
<path d="M1351.55 1746.08V1746.75H1353.55L1351.55 1746.08ZM1412.2 1746.08V1746.75H1414.2L1412.2 1746.08Z" fill="#C6D7FF"/>
<path d="M1414.2 1746.08V1746.75H1416.19L1414.2 1746.08Z" fill="#8DB0FF"/>
<path d="M1356.21 1746.75V1747.42H1358.88L1356.21 1746.75Z" fill="#5286FF"/>
<path d="M1358.88 1746.75V1747.42H1362.21L1358.88 1746.75Z" fill="#8DB0FF"/>
<path d="M1362.21 1746.75V1747.42H1365.55L1362.21 1746.75ZM1402.2 1746.75V1747.42H1404.87L1402.2 1746.75Z" fill="#C6D7FF"/>
<path d="M1404.87 1746.75V1747.42H1407.53L1404.87 1746.75Z" fill="#8DB0FF"/>
<path d="M1407.53 1746.75V1747.42H1410.2L1407.53 1746.75Z" fill="#5286FF"/>
<path d="M1369.54 1747.42V1748.08H1375.54L1369.54 1747.42Z" fill="#5286FF"/>
<path d="M1375.54 1747.42V1748.08H1393.54L1375.54 1747.42Z" fill="#8DB0FF"/>
<path d="M1393.54 1747.42V1748.08H1398.2L1393.54 1747.42Z" fill="#5286FF"/>
<path d="M703.766 1748.75V1749.42H705.765L703.766 1748.75Z" fill="#C6D7FF"/>
<path d="M707.098 1749.42V1750.08H711.096L707.098 1749.42Z" fill="#5286FF"/>
<path d="M711.096 1749.42V1750.08H713.096L711.096 1749.42Z" fill="#8DB0FF"/>
<path d="M713.096 1749.42V1750.08H717.094L713.096 1749.42Z" fill="#5286FF"/>
</g>
<defs>
<clipPath id="clip0_567_2158">
<rect width="2000" height="1999.33" rx="360" fill="white"/>
</clipPath>
</defs>
</svg>
