<?xml version="1.0" encoding="utf-8"?>
<!-- Generator: Adobe Illustrator 25.4.1, SVG Export Plug-In . SVG Version: 6.00 Build 0)  -->
<svg version="1.1" id="Layer_1" xmlns="http://www.w3.org/2000/svg" xmlns:xlink="http://www.w3.org/1999/xlink" x="0px" y="0px"
	 viewBox="0 0 87.5 86.6" style="enable-background:new 0 0 87.5 86.6;" xml:space="preserve">
<style type="text/css">
	.st0{fill-rule:evenodd;clip-rule:evenodd;fill:#030092;}
	.st1{fill-rule:evenodd;clip-rule:evenodd;fill:url(#SVGID_1_);}
	.st2{fill:#030092;}
	.st3{fill:url(#SVGID_00000044149395614524333390000009274643985060408230_);}
	.st4{fill:#030093;}
	.st5{fill:url(#SVGID_00000012439972497129436190000017151216931791059631_);}
</style>
<g>
	<g>
		<path class="st0" d="M82.4,64.2c0.2,0.2,0.5,0.4,0.7,0.7V25.6c0-1.2-1-2.2-2.2-2.2c-1.2,0-2.2,1-2.2,2.2v39.3
			c0.2-0.2,0.5-0.4,0.7-0.7l1.5-1.4L82.4,64.2z M80.9,68.9c-4.4,4.4-6.6,7.9-6.6,10.1c0,3.6,2.9,6.6,6.6,6.6c3.6,0,6.6-2.9,6.6-6.6
			C87.5,76.7,85.3,73.3,80.9,68.9z"/>
		
			<radialGradient id="SVGID_1_" cx="-493.6255" cy="1007.1048" r="1" gradientTransform="matrix(-4.8299 59.5931 14.357 1.1636 -16759.5859 28287.5684)" gradientUnits="userSpaceOnUse">
			<stop  offset="0" style="stop-color:#3244E8"/>
			<stop  offset="1" style="stop-color:#000210;stop-opacity:0"/>
		</radialGradient>
		<path class="st1" d="M82.4,64.2c0.2,0.2,0.5,0.4,0.7,0.7V25.6c0-1.2-1-2.2-2.2-2.2c-1.2,0-2.2,1-2.2,2.2v39.3
			c0.2-0.2,0.5-0.4,0.7-0.7l1.5-1.4L82.4,64.2z M80.9,68.9c-4.4,4.4-6.6,7.9-6.6,10.1c0,3.6,2.9,6.6,6.6,6.6c3.6,0,6.6-2.9,6.6-6.6
			C87.5,76.7,85.3,73.3,80.9,68.9z"/>
	</g>
	<g>
		<path class="st2" d="M42.7,1.7l39.5,21.9c1.5,0.8,1.5,3,0,3.8L42.7,49.4c-0.7,0.4-1.5,0.4-2.1,0L1.1,27.5c-1.5-0.8-1.5-3,0-3.8
			L40.6,1.7C41.3,1.4,42.1,1.4,42.7,1.7z"/>
		
			<radialGradient id="SVGID_00000134250187775529191090000004015533709250634916_" cx="-494.0764" cy="1005.7149" r="1" gradientTransform="matrix(-30.6664 46.316 63.7901 42.2362 -79247.5547 -19577.373)" gradientUnits="userSpaceOnUse">
			<stop  offset="0" style="stop-color:#3244E8"/>
			<stop  offset="1" style="stop-color:#000210;stop-opacity:0"/>
		</radialGradient>
		<path style="fill:url(#SVGID_00000134250187775529191090000004015533709250634916_);" d="M42.7,1.7l39.5,21.9c1.5,0.8,1.5,3,0,3.8
			L42.7,49.4c-0.7,0.4-1.5,0.4-2.1,0L1.1,27.5c-1.5-0.8-1.5-3,0-3.8L40.6,1.7C41.3,1.4,42.1,1.4,42.7,1.7z"/>
	</g>
	<g>
		<path class="st4" d="M70.8,40.5l0,20.7c0,0.5-0.2,1.1-0.6,1.5c-5.5,6.2-15.1,9.2-28.6,9.2c-13.6,0-23.1-3-28.6-9.2
			c-0.4-0.4-0.6-0.9-0.6-1.5l0-20.7l25.9,14.4c1,0.6,2.1,0.8,3.3,0.8c1.1,0,2.3-0.3,3.3-0.8L70.8,40.5z"/>
		
			<radialGradient id="SVGID_00000039844985184397690920000017971958602322480516_" cx="-493.3256" cy="1006.3447" r="1" gradientTransform="matrix(-21.4667 30.153 42.625 30.3458 -53431.9453 -15612.7637)" gradientUnits="userSpaceOnUse">
			<stop  offset="0" style="stop-color:#3244E8"/>
			<stop  offset="1" style="stop-color:#000210;stop-opacity:0"/>
		</radialGradient>
		<path style="fill:url(#SVGID_00000039844985184397690920000017971958602322480516_);" d="M70.8,40.5l0,20.7c0,0.5-0.2,1.1-0.6,1.5
			c-5.5,6.2-15.1,9.2-28.6,9.2c-13.6,0-23.1-3-28.6-9.2c-0.4-0.4-0.6-0.9-0.6-1.5l0-20.7l25.9,14.4c1,0.6,2.1,0.8,3.3,0.8
			c1.1,0,2.3-0.3,3.3-0.8L70.8,40.5z"/>
	</g>
</g>
</svg>
